<svg xmlns="http://www.w3.org/2000/svg" viewBox="0 0 727.67 268.66"><defs><style>.cls-1{fill:#b6c6e0;}.cls-2,.cls-6{fill:#fff;}.cls-3,.cls-5{fill:none;}.cls-3{stroke:#ea3d00;stroke-width:7px;}.cls-3,.cls-5,.cls-6{stroke-miterlimit:10;}.cls-4{fill:#ea3d00;}.cls-5,.cls-6{stroke:#fff;}.cls-5{stroke-width:2px;}</style></defs><g id="Layer_2" data-name="Layer 2"><g id="Layer_2-2" data-name="Layer 2"><path class="cls-1" d="M152.89,229.49a5.14,5.14,0,0,1-1,3.14,4.64,4.64,0,0,1-2.67,1.76,7.4,7.4,0,0,0,1,2.69,2.17,2.17,0,0,0,1.9,1.12,2.44,2.44,0,0,0,1.79-.72l1,2.05a4.84,4.84,0,0,1-3.25,1.25,4.25,4.25,0,0,1-2.38-.68,4.71,4.71,0,0,1-1.59-1.76,12,12,0,0,1-.84-2,10.09,10.09,0,0,1-.37-1.78h-2.74v6h-3V224.27h7a4.69,4.69,0,0,1,3.69,1.52A5.3,5.3,0,0,1,152.89,229.49Zm-9.1,2.7h3.58a2.31,2.31,0,0,0,1.83-.76,2.81,2.81,0,0,0,.67-2,2.86,2.86,0,0,0-.69-2,2.34,2.34,0,0,0-1.81-.76h-3.58Z"/><path class="cls-1" d="M166,236.93l1.63,1.6a7.57,7.57,0,0,1-10.23.5,5.72,5.72,0,0,1-1.85-4.33,5.92,5.92,0,0,1,1.83-4.41,6.38,6.38,0,0,1,4.6-1.77,6.21,6.21,0,0,1,4.38,1.66,6.3,6.3,0,0,1,1.8,4.86h-9.75a3,3,0,0,0,1.1,2.38,4.35,4.35,0,0,0,2.94,1A5.14,5.14,0,0,0,166,236.93Zm-4-6.14a4,4,0,0,0-2.05.54,3.09,3.09,0,0,0-1.38,1.79h6.69a2.72,2.72,0,0,0-1.24-1.78A4,4,0,0,0,162,230.79Z"/><path class="cls-1" d="M181.21,228.77l-4.74,11.76h-3l-4.73-11.76h3.09l3.13,8.57,3.16-8.57Z"/><path class="cls-1" d="M183.8,239a5.91,5.91,0,0,1,0-8.66,6.45,6.45,0,0,1,8.95,0,5.87,5.87,0,0,1,0,8.65,6.49,6.49,0,0,1-9,0Zm2-6.94a3.88,3.88,0,0,0,0,5.22,3.25,3.25,0,0,0,2.47,1.08,3.3,3.3,0,0,0,2.5-1.08,3.88,3.88,0,0,0,0-5.22,3.3,3.3,0,0,0-2.5-1.08A3.25,3.25,0,0,0,185.8,232Z"/><path class="cls-1" d="M200,240.53h-2.86v-16.8H200Z"/><path class="cls-1" d="M214.15,228.77v11.76h-2.86v-2a4.37,4.37,0,0,1-7,.79,6.58,6.58,0,0,1-1.1-4.06v-6.51H206v6.48c0,2,.75,3,2.27,3a2.7,2.7,0,0,0,2.09-1.07,5,5,0,0,0,.93-3.34v-5.09Z"/><path class="cls-1" d="M216.59,234.72a5.94,5.94,0,0,1,1.79-4.45,6.59,6.59,0,0,1,4.83-1.75,7.6,7.6,0,0,1,4.53,1.58l-1.33,2a4.68,4.68,0,0,0-3.06-1.07,3.94,3.94,0,0,0-2.8,1,3.61,3.61,0,0,0,0,5.16,4,4,0,0,0,2.79,1,4.62,4.62,0,0,0,3.06-1.07l1.33,2a7.44,7.44,0,0,1-4.53,1.6,6.69,6.69,0,0,1-4.81-1.72A5.71,5.71,0,0,1,216.59,234.72Z"/><path class="cls-1" d="M230.05,226.57a1.71,1.71,0,0,1-.52-1.28,1.75,1.75,0,0,1,.52-1.29,1.79,1.79,0,0,1,1.33-.52,1.86,1.86,0,0,1,1.36.52,1.7,1.7,0,0,1,.55,1.29,1.67,1.67,0,0,1-.55,1.28,1.9,1.9,0,0,1-1.36.51A1.83,1.83,0,0,1,230.05,226.57Zm2.75,14h-2.86V228.77h2.86Z"/><path class="cls-1" d="M237.18,239a5.91,5.91,0,0,1,0-8.66,6.45,6.45,0,0,1,8.95,0,5.87,5.87,0,0,1,0,8.65,6.49,6.49,0,0,1-9,0Zm2-6.94a3.88,3.88,0,0,0,0,5.22,3.25,3.25,0,0,0,2.47,1.08,3.3,3.3,0,0,0,2.5-1.08,3.88,3.88,0,0,0,0-5.22,3.3,3.3,0,0,0-2.5-1.08A3.25,3.25,0,0,0,239.18,232Zm3.14-8.61h3.09l-3,3.74h-2.23Z"/><path class="cls-1" d="M250.48,240.53V228.77h2.86v2a4.38,4.38,0,0,1,7.06-.79,6.65,6.65,0,0,1,1.09,4.06v6.51h-2.86V234a3.83,3.83,0,0,0-.6-2.31,2,2,0,0,0-1.67-.8,2.76,2.76,0,0,0-2.18,1,4.06,4.06,0,0,0-.84,2.75v5.88Z"/><path class="cls-1" d="M152.07,252.14V268.4h-3V252.14Z"/><path class="cls-1" d="M155.67,268.4V256.65h2.86v2a3.87,3.87,0,0,1,3.81-2.23,3.82,3.82,0,0,1,3.25,1.44,6.61,6.61,0,0,1,1.09,4.07v6.5h-2.86v-6.48a3.79,3.79,0,0,0-.6-2.31,2,2,0,0,0-1.67-.8,2.76,2.76,0,0,0-2.17,1,4,4,0,0,0-.85,2.75v5.88Z"/><path class="cls-1" d="M178.78,251.61h2.86V268.4h-2.86v-1.76a4.51,4.51,0,0,1-4,2,5.3,5.3,0,0,1-4.14-1.78,6.8,6.8,0,0,1,0-8.73,5.35,5.35,0,0,1,4.19-1.76,4.7,4.7,0,0,1,4,2Zm-6.9,10.89a3.94,3.94,0,0,0,.94,2.69,3.17,3.17,0,0,0,2.52,1.07,3.41,3.41,0,0,0,2.5-1,3.58,3.58,0,0,0,1-2.67,3.91,3.91,0,0,0-1-2.78,3.4,3.4,0,0,0-2.59-1.06,3.07,3.07,0,0,0-2.46,1.07A4,4,0,0,0,171.88,262.5Z"/><path class="cls-1" d="M195.74,256.65V268.4h-2.86v-2a4.37,4.37,0,0,1-7,.79,6.61,6.61,0,0,1-1.1-4.07v-6.5h2.86v6.48c0,2,.76,3,2.27,3a2.73,2.73,0,0,0,2.09-1.07,5,5,0,0,0,.93-3.35v-5.08Z"/><path class="cls-1" d="M198,265.61l2.25-.95a2,2,0,0,0,.92,1.27,3.05,3.05,0,0,0,1.59.43,2.53,2.53,0,0,0,1.24-.29,1,1,0,0,0,.53-.94c0-.48-.43-.9-1.28-1.26l-1.72-.65q-3-1.1-2.95-3.27a3.15,3.15,0,0,1,1.22-2.58,4.77,4.77,0,0,1,3.08-1q3.18,0,4.11,2.63l-2.3.83a1.67,1.67,0,0,0-1.79-1.21,1.81,1.81,0,0,0-1.07.33,1,1,0,0,0-.46.91.86.86,0,0,0,.32.7,3.31,3.31,0,0,0,.91.5l1.74.63a4.41,4.41,0,0,1,2.35,1.46,3.33,3.33,0,0,1,.65,1.91A3,3,0,0,1,206,267.7a5.44,5.44,0,0,1-3.26,1,5.86,5.86,0,0,1-3-.75A3.74,3.74,0,0,1,198,265.61Z"/><path class="cls-1" d="M213.25,253.51v3.14h3.51v2.18h-3.51V265c0,.85.38,1.27,1.14,1.27a1.11,1.11,0,0,0,.85-.33,1.24,1.24,0,0,0,.31-.87,2.35,2.35,0,0,0-.16-1h2.35a3.42,3.42,0,0,1-.7,3.65,3.79,3.79,0,0,1-2.76.93,4.21,4.21,0,0,1-2.79-.92,3.91,3.91,0,0,1-1.09-3.15v-5.76h-1.84v-2.18h2l.51-3.14Z"/><path class="cls-1" d="M222.68,256.65v2.6a3.38,3.38,0,0,1,1.2-2.13,3.27,3.27,0,0,1,2-.73,4.44,4.44,0,0,1,1,.16v2.81a4,4,0,0,0-1.35-.23,2.74,2.74,0,0,0-.9.15,2.83,2.83,0,0,0-.88.54A2.67,2.67,0,0,0,223,261a6,6,0,0,0-.28,2v5.43h-2.86V256.65Z"/><path class="cls-1" d="M228.94,254.44a1.75,1.75,0,0,1-.52-1.28,1.79,1.79,0,0,1,.52-1.29,1.82,1.82,0,0,1,1.34-.52,1.88,1.88,0,0,1,1.36.52,1.73,1.73,0,0,1,.54,1.29,1.69,1.69,0,0,1-.54,1.28,1.91,1.91,0,0,1-1.36.51A1.85,1.85,0,0,1,228.94,254.44Zm2.76,14h-2.86V256.65h2.86Z"/><path class="cls-1" d="M244,256.65h2.86V268.4H244v-1.76a4.46,4.46,0,0,1-4,2,5.37,5.37,0,0,1-4.16-1.78,6.33,6.33,0,0,1-1.6-4.4,6.24,6.24,0,0,1,1.58-4.33,5.37,5.37,0,0,1,4.2-1.76,4.59,4.59,0,0,1,4,2Zm-6.9,5.85a3.89,3.89,0,0,0,.94,2.69,3.17,3.17,0,0,0,2.52,1.07,3.45,3.45,0,0,0,2.51-1,3.54,3.54,0,0,0,1-2.67,3.91,3.91,0,0,0-1-2.78,3.4,3.4,0,0,0-2.59-1.06,3.09,3.09,0,0,0-2.47,1.07A3.94,3.94,0,0,0,237.11,262.5Z"/><path class="cls-1" d="M253,268.4h-2.86V251.61H253Z"/><path class="cls-1" d="M3.81,125.89H0V103.13H3.81v2.35a5.91,5.91,0,0,1,5.36-2.69,7.14,7.14,0,0,1,5.56,2.35A8.48,8.48,0,0,1,16.85,111a8.29,8.29,0,0,1-2.11,5.78,7.16,7.16,0,0,1-5.6,2.34,6.11,6.11,0,0,1-5.33-2.66ZM13,111a5.23,5.23,0,0,0-1.26-3.59A4.23,4.23,0,0,0,8.39,106a4.58,4.58,0,0,0-3.34,1.3,4.72,4.72,0,0,0-1.33,3.56,5.15,5.15,0,0,0,1.33,3.68A4.5,4.5,0,0,0,8.49,116a4.11,4.11,0,0,0,3.29-1.43A5.2,5.2,0,0,0,13,111Z"/><path class="cls-1" d="M37.6,118.8h-4V110H24.47v8.77h-4V97.12h4v9.75h9.16V97.12h4Z"/><path class="cls-1" d="M594.11,240.53H591l6.27-16.26h3.09l6.32,16.26h-3l-1.23-3.19h-7.16Zm7.48-5.6-2.72-7.64-2.74,7.64Z"/><path class="cls-1" d="M607.42,234.72a6,6,0,0,1,1.78-4.45,6.63,6.63,0,0,1,4.84-1.75,7.6,7.6,0,0,1,4.53,1.58l-1.33,2a4.7,4.7,0,0,0-3.06-1.07,3.94,3.94,0,0,0-2.8,1,3.61,3.61,0,0,0,0,5.16,4,4,0,0,0,2.79,1,4.62,4.62,0,0,0,3.06-1.07l1.33,2a7.44,7.44,0,0,1-4.53,1.6,6.69,6.69,0,0,1-4.81-1.72A5.71,5.71,0,0,1,607.42,234.72Z"/><path class="cls-1" d="M624.26,225.64v3.13h3.5V231h-3.5v6.15c0,.85.38,1.28,1.14,1.28a1.08,1.08,0,0,0,.84-.34,1.21,1.21,0,0,0,.32-.87,2.28,2.28,0,0,0-.17-1h2.35a3,3,0,0,1,.26,1.32,3.09,3.09,0,0,1-1,2.32,3.78,3.78,0,0,1-2.76.93,4.15,4.15,0,0,1-2.79-.92,3.9,3.9,0,0,1-1.09-3.14V231h-1.84v-2.19h2l.51-3.13Z"/><path class="cls-1" d="M641.72,228.77v11.76h-2.85v-2a4.37,4.37,0,0,1-7,.79,6.51,6.51,0,0,1-1.11-4.06v-6.51h2.86v6.48c0,2,.76,3,2.28,3a2.71,2.71,0,0,0,2.09-1.07,5,5,0,0,0,.93-3.34v-5.09Z"/><path class="cls-1" d="M654,228.77h2.86v11.76H654v-1.77a4.44,4.44,0,0,1-4,2,5.34,5.34,0,0,1-4.16-1.78,6.31,6.31,0,0,1-1.6-4.4,6.24,6.24,0,0,1,1.58-4.33,5.36,5.36,0,0,1,4.2-1.75,4.58,4.58,0,0,1,4,2Zm-6.9,5.86a3.91,3.91,0,0,0,.94,2.69,3.21,3.21,0,0,0,2.52,1.07,3.45,3.45,0,0,0,2.51-1,3.54,3.54,0,0,0,1-2.67,3.88,3.88,0,0,0-1-2.77,3.36,3.36,0,0,0-2.59-1.06A3.09,3.09,0,0,0,648,232,3.92,3.92,0,0,0,647.09,234.63Z"/><path class="cls-1" d="M663,240.53h-2.86v-16.8H663Z"/><path class="cls-1" d="M666.45,226.57a1.71,1.71,0,0,1-.52-1.28,1.75,1.75,0,0,1,.52-1.29,1.82,1.82,0,0,1,1.34-.52,1.9,1.9,0,0,1,1.36.52,1.73,1.73,0,0,1,.54,1.29,1.69,1.69,0,0,1-.54,1.28,1.93,1.93,0,0,1-1.36.51A1.85,1.85,0,0,1,666.45,226.57Zm2.75,14h-2.85V228.77h2.85Z"/><path class="cls-1" d="M681.52,223.73h2.85v16.8h-2.85v-1.77a4.51,4.51,0,0,1-4,2,5.28,5.28,0,0,1-4.14-1.78,6.35,6.35,0,0,1-1.59-4.4,6.28,6.28,0,0,1,1.56-4.33,5.36,5.36,0,0,1,4.2-1.75,4.72,4.72,0,0,1,4,2Zm-6.9,10.9a3.91,3.91,0,0,0,.94,2.69,3.19,3.19,0,0,0,2.52,1.07,3.39,3.39,0,0,0,2.49-1,3.58,3.58,0,0,0,1-2.67,3.88,3.88,0,0,0-1-2.77,3.35,3.35,0,0,0-2.59-1.06,3.08,3.08,0,0,0-2.46,1.07A4,4,0,0,0,674.62,234.63Z"/><path class="cls-1" d="M696.64,228.77h2.85v11.76h-2.85v-1.77a4.44,4.44,0,0,1-4,2,5.32,5.32,0,0,1-4.16-1.78,6.31,6.31,0,0,1-1.6-4.4,6.2,6.2,0,0,1,1.58-4.33,5.36,5.36,0,0,1,4.2-1.75,4.58,4.58,0,0,1,4,2Zm-6.9,5.86a3.91,3.91,0,0,0,.94,2.69,3.21,3.21,0,0,0,2.52,1.07,3.45,3.45,0,0,0,2.51-1,3.58,3.58,0,0,0,1-2.67,3.88,3.88,0,0,0-1-2.77,3.36,3.36,0,0,0-2.59-1.06,3.09,3.09,0,0,0-2.47,1.07A3.87,3.87,0,0,0,689.74,234.63Z"/><path class="cls-1" d="M711.76,223.73h2.86v16.8h-2.86v-1.77a4.49,4.49,0,0,1-4,2,5.29,5.29,0,0,1-4.15-1.78,6.35,6.35,0,0,1-1.59-4.4,6.24,6.24,0,0,1,1.57-4.33,5.33,5.33,0,0,1,4.19-1.75,4.72,4.72,0,0,1,4,2Zm-6.9,10.9a3.91,3.91,0,0,0,.94,2.69,3.21,3.21,0,0,0,2.52,1.07,3.41,3.41,0,0,0,2.5-1,3.58,3.58,0,0,0,1-2.67,3.88,3.88,0,0,0-1-2.77,3.36,3.36,0,0,0-2.59-1.06,3.05,3.05,0,0,0-2.46,1.07A3.91,3.91,0,0,0,704.86,234.63Z"/><path class="cls-2" d="M577.86,103.67v-3.26h20v2.7l-13.94,25.17h-4.26l14-24.61Z"/><path class="cls-2" d="M598,133.46l-.75-1.44a4,4,0,0,0,2.34-1.81,5.06,5.06,0,0,0,.76-2.61,2.15,2.15,0,0,1-2.17-.24,2.12,2.12,0,0,1-.85-1.75,2.31,2.31,0,0,1,.69-1.83,2.87,2.87,0,0,1,2.09-.72,2.27,2.27,0,0,1,2.11,1.06,4.16,4.16,0,0,1,.64,2.21,8.09,8.09,0,0,1-1.25,4.48A6.36,6.36,0,0,1,598,133.46Z"/><path class="cls-2" d="M623.74,114a7.13,7.13,0,0,1-3.25,3.46,9.69,9.69,0,0,1-4.44,1.07,10,10,0,0,1-6.93-2.58,9.3,9.3,0,0,1,0-13.4,10.27,10.27,0,0,1,7.25-2.61,9.81,9.81,0,0,1,8.18,3.74q2.93,3.75,2.93,10a17.67,17.67,0,0,1-3.13,10.75,10.14,10.14,0,0,1-8.66,4.26,10,10,0,0,1-7.76-3.11l2.59-2.35a4.94,4.94,0,0,0,2.19,1.44,8.67,8.67,0,0,0,2.94.52,6.94,6.94,0,0,0,5.86-3.15A13.44,13.44,0,0,0,623.74,114Zm-2.57-.56a5.57,5.57,0,0,0,0-8.36,6.85,6.85,0,0,0-4.64-1.64,6.59,6.59,0,0,0-4.54,1.62,5.73,5.73,0,0,0,0,8.4,6.64,6.64,0,0,0,4.54,1.61A6.85,6.85,0,0,0,621.17,113.47Z"/><path class="cls-2" d="M642.73,117.89v-3.55H656v3.55Z"/><path class="cls-2" d="M690.25,126.23a13.9,13.9,0,0,1-15.88,0,7.53,7.53,0,0,1-3.17-6.11,6.24,6.24,0,0,1,1.51-4,8.76,8.76,0,0,1,3.95-2.75,7.63,7.63,0,0,1-3.09-2.39,5.48,5.48,0,0,1-1.18-3.35,6.67,6.67,0,0,1,2.81-5.45,12.64,12.64,0,0,1,14.22,0,6.66,6.66,0,0,1,2.8,5.45,5.46,5.46,0,0,1-1.17,3.35,7.63,7.63,0,0,1-3.09,2.39,8.76,8.76,0,0,1,3.95,2.75,6.24,6.24,0,0,1,1.51,4A7.53,7.53,0,0,1,690.25,126.23Zm-13.14-2.43a9.82,9.82,0,0,0,10.4,0,4.39,4.39,0,0,0,.16-7.27,8.19,8.19,0,0,0-5.2-1.47h-.32a8.31,8.31,0,0,0-5.2,1.45,4.41,4.41,0,0,0,.16,7.29Zm9.56-19.21a8.52,8.52,0,0,0-8.72,0,3.59,3.59,0,0,0-1.65,3,4.19,4.19,0,0,0,1.53,3.21,6.22,6.22,0,0,0,4.32,1.37h.28a6.33,6.33,0,0,0,4.32-1.37,4.14,4.14,0,0,0,1.57-3.21A3.59,3.59,0,0,0,686.67,104.59Z"/><path class="cls-2" d="M698,133.46l-.76-1.44a4,4,0,0,0,2.35-1.81,5.06,5.06,0,0,0,.76-2.61,2.15,2.15,0,0,1-2.17-.24,2.13,2.13,0,0,1-.86-1.75,2.35,2.35,0,0,1,.7-1.83,2.87,2.87,0,0,1,2.09-.72,2.28,2.28,0,0,1,2.11,1.06,4.25,4.25,0,0,1,.64,2.21,8,8,0,0,1-1.26,4.48A6.31,6.31,0,0,1,698,133.46Z"/><path class="cls-2" d="M713.25,125v.16q1.79-.17,6.29-.16h8.13v3.26h-20l-.51-2.55,11.59-10.47c2.62-2.26,3.94-4.46,3.94-6.61a4.86,4.86,0,0,0-1.59-3.86,6.28,6.28,0,0,0-4.27-1.4c-2.09,0-3.58.48-4.46,1.42a4.6,4.6,0,0,0-1.31,3.2h-3.94a7.53,7.53,0,0,1,.48-2.59,8.72,8.72,0,0,1,1.53-2.58,7.4,7.4,0,0,1,3-2.07,12.24,12.24,0,0,1,4.65-.8,10.3,10.3,0,0,1,7.09,2.33,8,8,0,0,1,2.63,6.27,9,9,0,0,1-1.31,4.94,21.44,21.44,0,0,1-3.79,4.22Z"/><path class="cls-2" d="M140.17,40a13.9,13.9,0,0,1-15.88,0,7.49,7.49,0,0,1-3.17-6.11,6.28,6.28,0,0,1,1.51-4,8.78,8.78,0,0,1,4-2.75,7.55,7.55,0,0,1-3.09-2.39,5.39,5.39,0,0,1-1.18-3.34,6.68,6.68,0,0,1,2.81-5.46,12.64,12.64,0,0,1,14.22,0,6.67,6.67,0,0,1,2.8,5.46A5.44,5.44,0,0,1,141,24.68a7.55,7.55,0,0,1-3.09,2.39,8.84,8.84,0,0,1,4,2.75,6.33,6.33,0,0,1,1.51,4A7.52,7.52,0,0,1,140.17,40ZM127,37.52a9.76,9.76,0,0,0,10.4,0,4.37,4.37,0,0,0,.15-7.26,8.08,8.08,0,0,0-5.19-1.48h-.32a8.25,8.25,0,0,0-5.2,1.46,4.4,4.4,0,0,0,.16,7.28Zm9.56-19.21a8.58,8.58,0,0,0-8.72,0,3.62,3.62,0,0,0-1.65,3,4.17,4.17,0,0,0,1.53,3.2,6.23,6.23,0,0,0,4.32,1.38h.28a6.33,6.33,0,0,0,4.32-1.38,4.12,4.12,0,0,0,1.57-3.2A3.62,3.62,0,0,0,136.59,18.31Z"/><path class="cls-2" d="M147.92,47.18l-.76-1.43a4,4,0,0,0,2.35-1.82,5.05,5.05,0,0,0,.76-2.6,2.2,2.2,0,0,1-2.17-.24,2.14,2.14,0,0,1-.86-1.75,2.33,2.33,0,0,1,.7-1.84,2.91,2.91,0,0,1,2.09-.71,2.28,2.28,0,0,1,2.11,1.05,4.28,4.28,0,0,1,.64,2.21,8,8,0,0,1-1.26,4.48A6.31,6.31,0,0,1,147.92,47.18Z"/><path class="cls-2" d="M176.93,17.79a16,16,0,0,1,3.28,10.28,15.94,15.94,0,0,1-3.28,10.25,11.31,11.31,0,0,1-17.46,0,16,16,0,0,1-3.27-10.25,16.06,16.06,0,0,1,3.27-10.3,11.29,11.29,0,0,1,17.46,0Zm-2.81,18.1a13.09,13.09,0,0,0,2.23-7.82,13.34,13.34,0,0,0-2.21-7.85,7.18,7.18,0,0,0-11.87,0,13.34,13.34,0,0,0-2.21,7.85,13.27,13.27,0,0,0,2.21,7.8,7.16,7.16,0,0,0,11.85,0Z"/><path class="cls-2" d="M195.46,31.61V28.07h13.3v3.54Z"/><path class="cls-2" d="M243,40a13.92,13.92,0,0,1-15.89,0,7.52,7.52,0,0,1-3.17-6.11,6.29,6.29,0,0,1,1.52-4,8.81,8.81,0,0,1,3.94-2.75,7.61,7.61,0,0,1-3.09-2.39,5.44,5.44,0,0,1-1.17-3.34,6.65,6.65,0,0,1,2.81-5.46,12.62,12.62,0,0,1,14.21,0A6.68,6.68,0,0,1,245,21.34a5.39,5.39,0,0,1-1.18,3.34,7.58,7.58,0,0,1-3.08,2.39,8.81,8.81,0,0,1,3.94,2.75,6.28,6.28,0,0,1,1.51,4A7.5,7.5,0,0,1,243,40Zm-13.14-2.43a9.75,9.75,0,0,0,10.39,0,4.38,4.38,0,0,0,.16-7.26,8.13,8.13,0,0,0-5.2-1.48h-.32a8.2,8.2,0,0,0-5.19,1.46,4.4,4.4,0,0,0,.16,7.28Zm9.55-19.21a8.58,8.58,0,0,0-8.72,0,3.62,3.62,0,0,0-1.65,3,4.17,4.17,0,0,0,1.53,3.2,6.26,6.26,0,0,0,4.32,1.38h.28a6.33,6.33,0,0,0,4.32-1.38,4.13,4.13,0,0,0,1.58-3.2A3.63,3.63,0,0,0,239.4,18.31Z"/><path class="cls-2" d="M250.73,47.18,250,45.75a4.07,4.07,0,0,0,2.35-1.82,5.14,5.14,0,0,0,.75-2.6,2.2,2.2,0,0,1-2.17-.24,2.13,2.13,0,0,1-.85-1.75,2.32,2.32,0,0,1,.69-1.84,2.91,2.91,0,0,1,2.09-.71A2.26,2.26,0,0,1,255,37.84a4.19,4.19,0,0,1,.64,2.21,8.09,8.09,0,0,1-1.25,4.48A6.36,6.36,0,0,1,250.73,47.18Z"/><path class="cls-2" d="M268.93,38.94a7.36,7.36,0,0,0,5.34-1.87,5.77,5.77,0,0,0,1.91-4.19,5.1,5.1,0,0,0-1.81-4,6.57,6.57,0,0,0-4.48-1.59,5.89,5.89,0,0,0-4,1.31L264,26.35l9.16-9H260.45V14.13h18.67v2.43l-8.44,7.76a10.08,10.08,0,0,1,6.55,2.29A7.64,7.64,0,0,1,280,32.85a8.9,8.9,0,0,1-3,6.86c-2,1.82-4.69,2.73-8.14,2.73q-6.09,0-9.64-3.22l2.27-2.55A11.26,11.26,0,0,0,265,38.48,14.25,14.25,0,0,0,268.93,38.94Z"/><path class="cls-3" d="M195.54,81.75c220.11,0,395.43,98,457.71,98"/><circle class="cls-4" cx="197.2" cy="82.3" r="7.74"/><circle class="cls-4" cx="653.47" cy="180.19" r="7.74"/><line class="cls-5" x1="60.76" y1="13.65" x2="60.76" y2="215"/><polygon class="cls-6" points="60.76 1 51.5 17.04 70.02 17.04 60.76 1"/><polygon class="cls-6" points="60.76 225.91 70.02 209.87 51.5 209.87 60.76 225.91"/></g></g></svg>