<svg xmlns="http://www.w3.org/2000/svg" viewBox="0 0 570.41 180.09"><defs><style>.cls-1{fill:#fff;}.cls-2{fill:#19baa3;}.cls-3{fill:#ef7c2e;}.cls-4{fill:#ea3d00;}</style></defs><g id="Layer_2" data-name="Layer 2"><g id="Layer_1-2" data-name="Layer 1"><path class="cls-1" d="M103.38,151.72l-7.6-10.25v10.25h-2V137.87h1.47l7.57,10.21V137.87h2v13.85Z"/><path class="cls-1" d="M108.76,150.44a5.6,5.6,0,0,1,0-7.34,4.59,4.59,0,0,1,3.54-1.49,4.13,4.13,0,0,1,3.58,1.8v-1.58h1.92v9.89h-1.92v-1.58a4.13,4.13,0,0,1-3.58,1.8A4.57,4.57,0,0,1,108.76,150.44Zm6.21-1.18a3.73,3.73,0,0,0,0-5,3.28,3.28,0,0,0-2.44-1,3,3,0,0,0-2.35,1,3.93,3.93,0,0,0,0,4.93,3,3,0,0,0,2.35,1A3.28,3.28,0,0,0,115,149.26Z"/><path class="cls-1" d="M123.24,143.33v5.4c0,1,.39,1.52,1.18,1.52a1.3,1.3,0,0,0,.85-.28,1,1,0,0,0,.36-.8,1.8,1.8,0,0,0-.16-.81h1.68a2.17,2.17,0,0,1,.16.67,3.53,3.53,0,0,1,0,.39,2.34,2.34,0,0,1-.77,1.81,3.09,3.09,0,0,1-2.16.71,3.19,3.19,0,0,1-2.2-.79,3.28,3.28,0,0,1-.88-2.56v-5.26h-1.63v-1.5h1.63l.43-2.85h1.49v2.85h3.14v1.5Z"/><path class="cls-1" d="M130.89,141.83v5.58a3.3,3.3,0,0,0,.57,2.14,1.82,1.82,0,0,0,1.45.69,3,3,0,0,0,.94-.17,3.79,3.79,0,0,0,1-.57,3,3,0,0,0,.88-1.19,4.8,4.8,0,0,0,.34-1.89v-4.59H138v9.89h-1.92v-2a2.85,2.85,0,0,1-1.19,1.62,3.77,3.77,0,0,1-2.13.58,3.58,3.58,0,0,1-2.75-1.13,4.84,4.84,0,0,1-1.05-3.4v-5.58Z"/><path class="cls-1" d="M143,141.83v2.23a3.18,3.18,0,0,1,1-1.81,2.52,2.52,0,0,1,1.69-.64,2.13,2.13,0,0,1,.91.22v1.88a2.15,2.15,0,0,0-1-.26,2.31,2.31,0,0,0-.52.06,1.91,1.91,0,0,0-.64.34,2.3,2.3,0,0,0-.66.72,4.5,4.5,0,0,0-.49,1.33A9.23,9.23,0,0,0,143,148v3.74h-1.92v-9.89Z"/><path class="cls-1" d="M148.75,150.44a5.63,5.63,0,0,1,0-7.34,4.59,4.59,0,0,1,3.54-1.49,4.12,4.12,0,0,1,3.58,1.8v-1.58h1.92v9.89h-1.92v-1.58a4.12,4.12,0,0,1-3.58,1.8A4.57,4.57,0,0,1,148.75,150.44Zm6.21-1.18a3.73,3.73,0,0,0,0-5,3.24,3.24,0,0,0-2.43-1,3,3,0,0,0-2.36,1,3.93,3.93,0,0,0,0,4.93,3,3,0,0,0,2.36,1A3.24,3.24,0,0,0,155,149.26Z"/><path class="cls-1" d="M162.81,137.42v14.3H160.9v-14.3Z"/><path class="cls-1" d="M9.46,13.06A6.13,6.13,0,0,1,5.52,14.3a6.18,6.18,0,0,1-3.95-1.24A3.71,3.71,0,0,1,0,10,3.13,3.13,0,0,1,.75,8a4.37,4.37,0,0,1,2-1.36A3.87,3.87,0,0,1,1.18,5.48,2.72,2.72,0,0,1,.59,3.82,3.31,3.31,0,0,1,2,1.11,5.53,5.53,0,0,1,5.52,0,5.55,5.55,0,0,1,9.05,1.11a3.3,3.3,0,0,1,1.39,2.71,2.71,2.71,0,0,1-.58,1.66A3.87,3.87,0,0,1,8.33,6.67a4.43,4.43,0,0,1,2,1.36A3.13,3.13,0,0,1,11,10,3.72,3.72,0,0,1,9.46,13.06Zm-6.52-1.2a4.22,4.22,0,0,0,2.58.74,4.26,4.26,0,0,0,2.58-.74,2.18,2.18,0,0,0,.08-3.61A4,4,0,0,0,5.6,7.52H5.44a4.08,4.08,0,0,0-2.58.72,2.19,2.19,0,0,0,.08,3.62ZM7.68,2.31a3.61,3.61,0,0,0-2.16-.59,3.67,3.67,0,0,0-2.17.59,1.82,1.82,0,0,0-.82,1.51,2.1,2.1,0,0,0,.76,1.59,3.15,3.15,0,0,0,2.15.68h.14a3.16,3.16,0,0,0,2.14-.68,2,2,0,0,0,.79-1.59A1.8,1.8,0,0,0,7.68,2.31Z"/><path class="cls-1" d="M13.31,16.65l-.37-.71A2,2,0,0,0,14.1,15a2.55,2.55,0,0,0,.38-1.29,1.11,1.11,0,0,1-1.08-.12,1.08,1.08,0,0,1-.42-.87,1.13,1.13,0,0,1,.34-.91,1.43,1.43,0,0,1,1-.36,1.13,1.13,0,0,1,1.05.53,2.09,2.09,0,0,1,.32,1.09,4,4,0,0,1-.63,2.23A3.09,3.09,0,0,1,13.31,16.65Z"/><path class="cls-1" d="M27.72,2.06a7.93,7.93,0,0,1,1.63,5.1,7.88,7.88,0,0,1-1.63,5.09,5.26,5.26,0,0,1-4.34,2.05,5.22,5.22,0,0,1-4.33-2.05,7.93,7.93,0,0,1-1.62-5.09,8,8,0,0,1,1.62-5.11,5.22,5.22,0,0,1,4.33-2A5.26,5.26,0,0,1,27.72,2.06Zm-1.39,9a6.52,6.52,0,0,0,1.1-3.89,6.64,6.64,0,0,0-1.09-3.9,3.57,3.57,0,0,0-5.9,0,6.65,6.65,0,0,0-1.1,3.9A6.6,6.6,0,0,0,20.44,11a3.42,3.42,0,0,0,2.94,1.56A3.46,3.46,0,0,0,26.33,11.05Z"/><path class="cls-1" d="M37.76,12.81a5.25,5.25,0,0,1-1.37-3.67,5.24,5.24,0,0,1,1.37-3.67A4.56,4.56,0,0,1,41.3,4a4.12,4.12,0,0,1,3.58,1.8V4.19H46.8v9.89H44.88V12.5a4.12,4.12,0,0,1-3.58,1.8A4.59,4.59,0,0,1,37.76,12.81ZM44,11.62a3.43,3.43,0,0,0,1-2.48,3.43,3.43,0,0,0-1-2.48,3.2,3.2,0,0,0-2.43-1,3,3,0,0,0-2.36,1,3.59,3.59,0,0,0-.87,2.46,3.63,3.63,0,0,0,.87,2.46,3,3,0,0,0,2.36,1A3.24,3.24,0,0,0,44,11.62Z"/><path class="cls-1" d="M64,13.06a6.91,6.91,0,0,1-7.9,0,3.74,3.74,0,0,1-1.57-3,3.13,3.13,0,0,1,.75-2,4.43,4.43,0,0,1,2-1.36,3.87,3.87,0,0,1-1.53-1.19,2.71,2.71,0,0,1-.58-1.66,3.3,3.3,0,0,1,1.39-2.71,6.26,6.26,0,0,1,7.06,0A3.31,3.31,0,0,1,65,3.82a2.72,2.72,0,0,1-.59,1.66,3.87,3.87,0,0,1-1.53,1.19,4.37,4.37,0,0,1,2,1.36,3.13,3.13,0,0,1,.75,2A3.71,3.71,0,0,1,64,13.06Zm-6.53-1.2a4.87,4.87,0,0,0,5.16,0,2.18,2.18,0,0,0,.08-3.61,4,4,0,0,0-2.58-.73H60a4.08,4.08,0,0,0-2.58.72,2.19,2.19,0,0,0,.08,3.62Zm4.75-9.55a3.67,3.67,0,0,0-2.17-.59,3.61,3.61,0,0,0-2.16.59,1.8,1.8,0,0,0-.83,1.51,2.08,2.08,0,0,0,.77,1.59A3.1,3.1,0,0,0,60,6.09h.14a3.19,3.19,0,0,0,2.15-.68A2.06,2.06,0,0,0,63,3.82,1.82,1.82,0,0,0,62.22,2.31Z"/><path class="cls-1" d="M67.84,16.65l-.37-.71a2,2,0,0,0,1.17-.9A2.54,2.54,0,0,0,69,13.75a1.12,1.12,0,0,1-1.08-.12,1.08,1.08,0,0,1-.42-.87,1.13,1.13,0,0,1,.34-.91,1.43,1.43,0,0,1,1-.36,1.13,1.13,0,0,1,1,.53,2.09,2.09,0,0,1,.32,1.09,4,4,0,0,1-.63,2.23A3.09,3.09,0,0,1,67.84,16.65Z"/><path class="cls-1" d="M76.88,12.56a3.61,3.61,0,0,0,2.65-.93,2.82,2.82,0,0,0,1-2.08,2.5,2.5,0,0,0-.9-2,3.24,3.24,0,0,0-2.22-.8,2.87,2.87,0,0,0-2,.66l-1-1.13L79,1.86H72.67V.24H82v1.2L77.75,5.3A5,5,0,0,1,81,6.44,3.78,3.78,0,0,1,82.4,9.53,4.46,4.46,0,0,1,80.93,13a5.76,5.76,0,0,1-4.05,1.35,6.82,6.82,0,0,1-4.78-1.6l1.12-1.27a5.42,5.42,0,0,0,1.7.9A7.16,7.16,0,0,0,76.88,12.56Z"/><path class="cls-1" d="M211.41,39V37.32h9.93v1.35l-6.92,12.5H212.3L219.25,39Z"/><path class="cls-1" d="M221.4,53.74,221,53a2,2,0,0,0,1.16-.9,2.56,2.56,0,0,0,.38-1.3,1.06,1.06,0,0,1-1.08-.12,1.05,1.05,0,0,1-.42-.87,1.15,1.15,0,0,1,.34-.91,1.47,1.47,0,0,1,1-.35,1.12,1.12,0,0,1,1.05.52,2.12,2.12,0,0,1,.32,1.1,4,4,0,0,1-.63,2.23A3.13,3.13,0,0,1,221.4,53.74Z"/><path class="cls-1" d="M235.22,50.15a6.9,6.9,0,0,1-7.89,0,3.72,3.72,0,0,1-1.58-3,3.07,3.07,0,0,1,.76-2,4.36,4.36,0,0,1,2-1.37,3.76,3.76,0,0,1-1.53-1.18,2.71,2.71,0,0,1-.58-1.67,3.32,3.32,0,0,1,1.39-2.71,6.31,6.31,0,0,1,7.06,0,3.33,3.33,0,0,1,1.4,2.71,2.72,2.72,0,0,1-.59,1.67,3.76,3.76,0,0,1-1.53,1.18,4.34,4.34,0,0,1,2,1.37,3.11,3.11,0,0,1,.75,2A3.71,3.71,0,0,1,235.22,50.15Zm-6.53-1.21a4.81,4.81,0,0,0,5.16,0,2.18,2.18,0,0,0,.08-3.61,4.08,4.08,0,0,0-2.58-.73h-.16a4.06,4.06,0,0,0-2.58.73,2.18,2.18,0,0,0,.08,3.61Zm4.75-9.54a4.27,4.27,0,0,0-4.33,0,1.79,1.79,0,0,0-.82,1.5,2.09,2.09,0,0,0,.76,1.6,3.1,3.1,0,0,0,2.14.68h.14a3.19,3.19,0,0,0,2.15-.68,2.08,2.08,0,0,0,.78-1.6A1.79,1.79,0,0,0,233.44,39.4Z"/><path class="cls-1" d="M245.16,49.89a5.59,5.59,0,0,1,0-7.33,4.57,4.57,0,0,1,3.54-1.5,4.13,4.13,0,0,1,3.58,1.8V41.28h1.92v9.89h-1.92V49.59a4.13,4.13,0,0,1-3.58,1.8A4.57,4.57,0,0,1,245.16,49.89Zm6.21-1.18a3.73,3.73,0,0,0,0-5,3.25,3.25,0,0,0-2.43-1,3,3,0,0,0-2.36,1,3.93,3.93,0,0,0,0,4.93,3,3,0,0,0,2.36,1A3.25,3.25,0,0,0,251.37,48.71Z"/><path class="cls-1" d="M271.4,50.15a6.91,6.91,0,0,1-7.9,0,3.71,3.71,0,0,1-1.57-3,3.11,3.11,0,0,1,.75-2,4.39,4.39,0,0,1,2-1.37,3.76,3.76,0,0,1-1.53-1.18,2.72,2.72,0,0,1-.59-1.67,3.33,3.33,0,0,1,1.4-2.71,6.31,6.31,0,0,1,7.06,0,3.32,3.32,0,0,1,1.39,2.71,2.71,2.71,0,0,1-.58,1.67,3.76,3.76,0,0,1-1.53,1.18,4.45,4.45,0,0,1,2,1.37,3.11,3.11,0,0,1,.75,2A3.74,3.74,0,0,1,271.4,50.15Zm-6.53-1.21a4.81,4.81,0,0,0,5.16,0,2.19,2.19,0,0,0,1-1.82,2.23,2.23,0,0,0-.92-1.79,4.08,4.08,0,0,0-2.58-.73h-.16a4,4,0,0,0-2.58.73,2.18,2.18,0,0,0,.08,3.61Zm4.74-9.54a3.54,3.54,0,0,0-2.16-.59,3.6,3.6,0,0,0-2.17.59,1.81,1.81,0,0,0-.82,1.5,2.12,2.12,0,0,0,.76,1.6,3.15,3.15,0,0,0,2.15.68h.14a3.16,3.16,0,0,0,2.14-.68,2.06,2.06,0,0,0,.79-1.6A1.8,1.8,0,0,0,269.61,39.4Z"/><path class="cls-1" d="M275.24,53.74l-.37-.71a2,2,0,0,0,1.16-.9,2.56,2.56,0,0,0,.38-1.3,1.06,1.06,0,0,1-1.08-.12,1.05,1.05,0,0,1-.42-.87,1.15,1.15,0,0,1,.34-.91,1.47,1.47,0,0,1,1-.35,1.12,1.12,0,0,1,1,.52,2.11,2.11,0,0,1,.31,1.1,4,4,0,0,1-.62,2.23A3.13,3.13,0,0,1,275.24,53.74Z"/><path class="cls-1" d="M278.58,41.06l-.49-1.6,4.59-2.14h1V51.17h-1.92V39.66Z"/><path class="cls-1" d="M412.51,71.91V70.29h9.93v1.35l-6.93,12.5H413.4l6.94-12.23Z"/><path class="cls-1" d="M422.5,86.71l-.38-.71a2.08,2.08,0,0,0,1.17-.9,2.55,2.55,0,0,0,.37-1.3,1,1,0,0,1-1.07-.12,1,1,0,0,1-.43-.87,1.15,1.15,0,0,1,.35-.91,1.41,1.41,0,0,1,1-.35,1.12,1.12,0,0,1,1,.52,2.12,2.12,0,0,1,.32,1.1,4,4,0,0,1-.62,2.22A3.18,3.18,0,0,1,422.5,86.71Z"/><path class="cls-1" d="M428.63,77.08a4.3,4.3,0,0,1,3.8-2,5,5,0,0,1,3.44,1.28,4.64,4.64,0,0,1,0,6.66,5.13,5.13,0,0,1-3.6,1.29,5,5,0,0,1-4.12-1.86,7.7,7.7,0,0,1-1.5-5,8.82,8.82,0,0,1,1.55-5.34,5.05,5.05,0,0,1,4.31-2.12,4.94,4.94,0,0,1,3.85,1.55l-1.28,1.16a2.5,2.5,0,0,0-1.09-.71,4.28,4.28,0,0,0-1.46-.26,3.4,3.4,0,0,0-2.81,1.44A6.08,6.08,0,0,0,428.63,77.08Zm1.22.57a2.65,2.65,0,0,0,0,4.15,3.58,3.58,0,0,0,2.34.81,3.27,3.27,0,0,0,2.26-.8,2.87,2.87,0,0,0,0-4.17,3.32,3.32,0,0,0-2.26-.8A3.58,3.58,0,0,0,429.85,77.65Z"/><path class="cls-1" d="M445.46,82.86a5.63,5.63,0,0,1,0-7.34A4.59,4.59,0,0,1,449,74a4.12,4.12,0,0,1,3.58,1.8V74.25h1.92v9.89h-1.92V82.55a4.12,4.12,0,0,1-3.58,1.8A4.56,4.56,0,0,1,445.46,82.86Zm6.21-1.19a3.71,3.71,0,0,0,0-5,3.24,3.24,0,0,0-2.43-1,2.94,2.94,0,0,0-2.35,1,3.91,3.91,0,0,0,0,4.92,2.94,2.94,0,0,0,2.35,1A3.2,3.2,0,0,0,451.67,81.67Z"/><path class="cls-1" d="M461.84,71.91V70.29h9.93v1.35l-6.93,12.5h-2.11l6.94-12.23Z"/><path class="cls-1" d="M471.87,83.94a1.4,1.4,0,0,1-.42-1,1.43,1.43,0,0,1,.42-1,1.38,1.38,0,0,1,1-.42,1.45,1.45,0,0,1,1.46,1.46,1.37,1.37,0,0,1-.43,1,1.4,1.4,0,0,1-1,.41A1.37,1.37,0,0,1,471.87,83.94Z"/><path class="cls-1" d="M484.7,77.06a3.51,3.51,0,0,1-1.61,1.72,5.08,5.08,0,0,1-5.64-.76,4.6,4.6,0,0,1,0-6.65,5.06,5.06,0,0,1,3.6-1.3,4.86,4.86,0,0,1,4.06,1.86,7.85,7.85,0,0,1,1.45,5A8.75,8.75,0,0,1,485,82.24a5,5,0,0,1-4.3,2.11,5,5,0,0,1-3.86-1.54l1.29-1.17a2.37,2.37,0,0,0,1.09.72,4.27,4.27,0,0,0,1.46.25,3.44,3.44,0,0,0,2.91-1.56A6.65,6.65,0,0,0,484.7,77.06Zm-1.27-.28a2.64,2.64,0,0,0,.94-2.08,2.67,2.67,0,0,0-.94-2.08,3.43,3.43,0,0,0-2.31-.81,3.27,3.27,0,0,0-2.25.81A2.61,2.61,0,0,0,478,74.7a2.65,2.65,0,0,0,.91,2.09,3.31,3.31,0,0,0,2.25.8A3.43,3.43,0,0,0,483.43,76.78Z"/><path class="cls-1" d="M314.18,150.1v.08c.59-.06,1.63-.08,3.12-.08h4v1.62h-9.93l-.26-1.27,5.76-5.2a4.57,4.57,0,0,0,1.95-3.28,2.4,2.4,0,0,0-.79-1.92,3.08,3.08,0,0,0-2.11-.69,2.92,2.92,0,0,0-2.22.7,2.3,2.3,0,0,0-.65,1.59h-2a3.66,3.66,0,0,1,.24-1.28,4.32,4.32,0,0,1,.76-1.29,3.67,3.67,0,0,1,1.51-1,6.3,6.3,0,0,1,2.32-.39,5.13,5.13,0,0,1,3.52,1.15,4,4,0,0,1,1.3,3.12,4.37,4.37,0,0,1-.65,2.45,10.87,10.87,0,0,1-1.88,2.1Z"/><path class="cls-1" d="M333.51,139.69a8.79,8.79,0,0,1,0,10.2,5.61,5.61,0,0,1-8.67,0,8.85,8.85,0,0,1,0-10.21,5.62,5.62,0,0,1,8.67,0Zm-1.39,9a7.46,7.46,0,0,0,0-7.78,3.57,3.57,0,0,0-5.9,0,7.41,7.41,0,0,0,0,7.77,3.55,3.55,0,0,0,5.89,0Z"/><path class="cls-1" d="M337.12,150.33l1.13-1.26a3.84,3.84,0,0,0,1.57.78,7.09,7.09,0,0,0,2,.35,3.66,3.66,0,0,0,2.64-.88,3,3,0,0,0,.9-2.23,2.78,2.78,0,0,0-.85-2,3.3,3.3,0,0,0-2.42-.85,5.33,5.33,0,0,0-3.24,1l-1.36-.61.43-6.79h8.29v1.63h-6.55l-.33,4.09a4.15,4.15,0,0,1,3-1.09,4.7,4.7,0,0,1,3.53,1.36,4.44,4.44,0,0,1,1.34,3.23,4.55,4.55,0,0,1-1.44,3.52,5.63,5.63,0,0,1-4,1.33,7.8,7.8,0,0,1-2.7-.46A5.67,5.67,0,0,1,337.12,150.33Z"/><path class="cls-1" d="M359.38,139.69a8.79,8.79,0,0,1,0,10.2,5.61,5.61,0,0,1-8.67,0,8.85,8.85,0,0,1,0-10.21,5.62,5.62,0,0,1,8.67,0Zm-1.39,9a6.5,6.5,0,0,0,1.11-3.88,6.63,6.63,0,0,0-1.1-3.9,3.57,3.57,0,0,0-5.9,0,7.47,7.47,0,0,0,0,7.77,3.55,3.55,0,0,0,5.89,0Z"/><path class="cls-1" d="M496.24,151.71h-2V137.86h8.8v1.62h-6.82v4.63h5.95v1.62h-5.95Z"/><path class="cls-1" d="M505.38,139.58a1.28,1.28,0,0,1-.38-1,1.34,1.34,0,0,1,.38-1,1.3,1.3,0,0,1,.95-.38,1.3,1.3,0,0,1,1.34,1.34,1.28,1.28,0,0,1-.38,1,1.34,1.34,0,0,1-1,.38A1.3,1.3,0,0,1,505.38,139.58Zm1.92,12.13v-9.89h-1.92v9.89Z"/><path class="cls-1" d="M517.52,151.71v-5.58A3.33,3.33,0,0,0,517,144a1.83,1.83,0,0,0-1.45-.68,2.86,2.86,0,0,0-.93.17,3.71,3.71,0,0,0-1,.56,2.89,2.89,0,0,0-.88,1.2,4.72,4.72,0,0,0-.35,1.89v4.59H510.4v-9.89h1.92v2a2.88,2.88,0,0,1,1.2-1.63,3.79,3.79,0,0,1,2.12-.57,3.58,3.58,0,0,1,2.75,1.13,4.82,4.82,0,0,1,1.05,3.4v5.58Z"/><path class="cls-1" d="M530.44,149l1.07,1.11a6.12,6.12,0,0,1-8.38.35,4.87,4.87,0,0,1-1.53-3.64,5,5,0,0,1,1.51-3.7,5.19,5.19,0,0,1,3.81-1.5A5,5,0,0,1,530.5,143a5.17,5.17,0,0,1,1.46,4h-8.44a2.89,2.89,0,0,0,1,2.35,3.85,3.85,0,0,0,2.69.93A4.89,4.89,0,0,0,530.44,149Zm-3.48-5.7a3.84,3.84,0,0,0-1.93.51,3,3,0,0,0-1.34,1.67H530A2.85,2.85,0,0,0,527,143.28Z"/><path class="cls-1" d="M540.27,144l-1.7.38a1.67,1.67,0,0,0-2.6-.73,1.16,1.16,0,0,0-.41.91c0,.51.4.91,1.19,1.19l1.42.47c1.58.49,2.38,1.42,2.38,2.79a2.6,2.6,0,0,1-1,2.16,4,4,0,0,1-2.53.81,4.37,4.37,0,0,1-2.43-.69,3.18,3.18,0,0,1-1.39-1.91l1.7-.41a1.8,1.8,0,0,0,.78,1,2.43,2.43,0,0,0,1.36.38,1.84,1.84,0,0,0,1.22-.38,1.19,1.19,0,0,0,.48-1,1,1,0,0,0-.33-.76,2.64,2.64,0,0,0-.92-.49l-1.32-.45c-1.63-.49-2.44-1.39-2.44-2.69a2.77,2.77,0,0,1,.91-2.11,3.34,3.34,0,0,1,2.36-.84,3.88,3.88,0,0,1,2,.55A3,3,0,0,1,540.27,144Z"/><path class="cls-1" d="M548.71,150.43a5.63,5.63,0,0,1,0-7.34,4.6,4.6,0,0,1,3.55-1.49,4.13,4.13,0,0,1,3.58,1.8v-6h1.91v14.3h-1.91v-1.58a4.13,4.13,0,0,1-3.58,1.8A4.57,4.57,0,0,1,548.71,150.43Zm6.22-1.18a3.73,3.73,0,0,0,0-5,3.28,3.28,0,0,0-2.44-1,2.94,2.94,0,0,0-2.35,1,3.93,3.93,0,0,0,0,4.93,3,3,0,0,0,2.35,1A3.27,3.27,0,0,0,554.93,149.25Z"/><path class="cls-1" d="M568.89,149l1.07,1.11a6.12,6.12,0,0,1-8.38.35,4.87,4.87,0,0,1-1.53-3.64,5,5,0,0,1,1.51-3.7,5.19,5.19,0,0,1,3.81-1.5A5,5,0,0,1,569,143a5.13,5.13,0,0,1,1.46,4H562a2.86,2.86,0,0,0,1,2.35,3.81,3.81,0,0,0,2.68.93A4.89,4.89,0,0,0,568.89,149Zm-3.48-5.7a3.84,3.84,0,0,0-1.93.51,3,3,0,0,0-1.33,1.67h6.29A2.87,2.87,0,0,0,565.41,143.28Z"/><path class="cls-1" d="M517.59,167.69l-1.7.38a1.51,1.51,0,0,0-1.54-1.09,1.57,1.57,0,0,0-1.06.35,1.18,1.18,0,0,0-.41.91c0,.52.4.91,1.19,1.19l1.43.48q2.37.72,2.37,2.79a2.59,2.59,0,0,1-1,2.16,4,4,0,0,1-2.53.8,4.39,4.39,0,0,1-2.42-.68,3.23,3.23,0,0,1-1.4-1.91l1.7-.41a1.74,1.74,0,0,0,.78,1,2.48,2.48,0,0,0,1.36.39,1.89,1.89,0,0,0,1.23-.39,1.18,1.18,0,0,0,.47-1,1,1,0,0,0-.33-.76,2.54,2.54,0,0,0-.92-.48l-1.32-.46c-1.62-.48-2.43-1.38-2.43-2.69a2.73,2.73,0,0,1,.91-2.1,3.32,3.32,0,0,1,2.35-.84,3.85,3.85,0,0,1,2,.55A2.94,2.94,0,0,1,517.59,167.69Z"/><path class="cls-1" d="M520.22,163.32a1.29,1.29,0,0,1-.37-.95,1.33,1.33,0,0,1,.37-1,1.27,1.27,0,0,1,.95-.39,1.29,1.29,0,0,1,1,.39,1.3,1.3,0,0,1,.39,1,1.27,1.27,0,0,1-.39.95,1.32,1.32,0,0,1-1,.38A1.3,1.3,0,0,1,520.22,163.32Zm1.92,12.12v-9.89h-1.92v9.89Z"/><path class="cls-1" d="M534.92,165.55v9.82a4.3,4.3,0,0,1-1.48,3.53,5.72,5.72,0,0,1-3.68,1.19,6.54,6.54,0,0,1-4.24-1.42l.77-1.5a5.15,5.15,0,0,0,3.47,1.24,3.31,3.31,0,0,0,2.36-.83,3.11,3.11,0,0,0,.88-2.39v-1.33a4.12,4.12,0,0,1-3.58,1.8,4.59,4.59,0,0,1-3.54-1.49,5.6,5.6,0,0,1,0-7.34,4.56,4.56,0,0,1,3.54-1.49,4.12,4.12,0,0,1,3.58,1.8v-1.59ZM532.09,173a3.71,3.71,0,0,0,0-5,3.2,3.2,0,0,0-2.43-1,3,3,0,0,0-2.36,1,3.91,3.91,0,0,0,0,4.92,3,3,0,0,0,2.36,1A3.24,3.24,0,0,0,532.09,173Z"/><path class="cls-1" d="M539.94,161.14v14.3H538v-14.3Z"/><path class="cls-1" d="M543.82,174.15a5.16,5.16,0,0,1,3.66-8.81,5.16,5.16,0,1,1-3.66,8.81Zm1.35-6.08a3.45,3.45,0,0,0-1,2.45,3.39,3.39,0,0,0,1,2.43,3.16,3.16,0,0,0,4.63,0,3.39,3.39,0,0,0,1-2.43,3.45,3.45,0,0,0-1-2.45,3.12,3.12,0,0,0-4.63,0Z"/><rect class="cls-2" x="108.07" y="5.85" width="42.86" height="113.73"/><rect class="cls-3" x="314.93" y="44.58" width="42.86" height="75"/><rect class="cls-4" x="510.26" y="76.72" width="42.86" height="42.86"/></g></g></svg>