<svg xmlns="http://www.w3.org/2000/svg" viewBox="0 0 535.54 85.45"><defs><style>.cls-1{fill:#ecf5ff;}.cls-2{fill:#199;}</style></defs><g id="Layer_2" data-name="Layer 2"><g id="Layer_1-2" data-name="Layer 1"><path class="cls-1" d="M16.72,68a2.77,2.77,0,0,1-.88,1.89,3,3,0,0,1-2,.66,2.77,2.77,0,0,1-1.54-.43,2.9,2.9,0,0,1-1-1.24,4.56,4.56,0,0,1-.37-1.83v-1a4.37,4.37,0,0,1,.37-1.85A2.81,2.81,0,0,1,12.3,63a2.91,2.91,0,0,1,1.58-.44,2.81,2.81,0,0,1,2,.68,2.85,2.85,0,0,1,.85,1.88h-.67a2,2,0,0,0-2.17-2,2.06,2.06,0,0,0-1.7.8,3.48,3.48,0,0,0-.63,2.21v1a3.48,3.48,0,0,0,.62,2.16,2,2,0,0,0,1.66.81,2.16,2.16,0,0,0,1.57-.5A2.38,2.38,0,0,0,16.05,68Z"/><path class="cls-1" d="M17.83,67.47A3.38,3.38,0,0,1,18.15,66a2.55,2.55,0,0,1,.92-1,2.49,2.49,0,0,1,1.35-.37,2.41,2.41,0,0,1,1.89.81A3.18,3.18,0,0,1,23,67.52v.13a3.4,3.4,0,0,1-.33,1.52,2.42,2.42,0,0,1-.92,1,2.52,2.52,0,0,1-1.35.36,2.4,2.4,0,0,1-1.88-.81,3.18,3.18,0,0,1-.72-2.17Zm.64.18A2.66,2.66,0,0,0,19,69.37a1.84,1.84,0,0,0,2.84,0,2.75,2.75,0,0,0,.54-1.77v-.13a3.06,3.06,0,0,0-.25-1.22,2.13,2.13,0,0,0-.69-.86,1.81,1.81,0,0,0-1-.3,1.71,1.71,0,0,0-1.4.67,2.7,2.7,0,0,0-.55,1.77Z"/><path class="cls-1" d="M27.05,65.2a2,2,0,0,0-.43,0,1.51,1.51,0,0,0-1,.34,1.8,1.8,0,0,0-.6,1v4h-.64V64.65H25v.92a1.71,1.71,0,0,1,1.64-1,1,1,0,0,1,.43.07Z"/><path class="cls-1" d="M31.53,70.47a3.32,3.32,0,0,1-.12-.81,2.21,2.21,0,0,1-.86.68,2.65,2.65,0,0,1-1.12.24,1.93,1.93,0,0,1-1.36-.47,1.53,1.53,0,0,1-.52-1.18,1.57,1.57,0,0,1,.71-1.35,3.41,3.41,0,0,1,2-.49H31.4v-.67a1.27,1.27,0,0,0-.38-1,1.59,1.59,0,0,0-1.12-.36,1.78,1.78,0,0,0-1.12.35,1,1,0,0,0-.44.83h-.65a1.5,1.5,0,0,1,.65-1.2,2.48,2.48,0,0,1,1.59-.51,2.26,2.26,0,0,1,1.54.49,1.74,1.74,0,0,1,.58,1.36v2.75a3.64,3.64,0,0,0,.17,1.27v.06Zm-2-.46a2.11,2.11,0,0,0,1.15-.31,1.82,1.82,0,0,0,.74-.84V67.58H30.25a3,3,0,0,0-1.51.35,1.08,1.08,0,0,0-.54.95,1.06,1.06,0,0,0,.36.81A1.42,1.42,0,0,0,29.51,70Z"/><path class="cls-1" d="M34.49,70.47h-.65V62.2h.65Z"/><path class="cls-1" d="M38.49,70.58a2.56,2.56,0,0,1-1.34-.36,2.64,2.64,0,0,1-.94-1,3.24,3.24,0,0,1-.33-1.47V67.5A3.43,3.43,0,0,1,36.21,66a2.6,2.6,0,0,1,.9-1.06,2.3,2.3,0,0,1,1.26-.38,2.13,2.13,0,0,1,1.69.72,3,3,0,0,1,.62,2v.36H36.52v.13a2.43,2.43,0,0,0,.57,1.65,1.82,1.82,0,0,0,1.43.66,1.93,1.93,0,0,0,1.63-.79l.41.3A2.36,2.36,0,0,1,38.49,70.58Zm-.12-5.49a1.62,1.62,0,0,0-1.22.53,2.57,2.57,0,0,0-.61,1.43H40V67a2.13,2.13,0,0,0-.48-1.36A1.47,1.47,0,0,0,38.37,65.09Z"/><path class="cls-1" d="M45.42,69a.91.91,0,0,0-.38-.77,3,3,0,0,0-1.16-.45,5.16,5.16,0,0,1-1.2-.38,1.54,1.54,0,0,1-.64-.52,1.27,1.27,0,0,1-.21-.74A1.38,1.38,0,0,1,42.41,65a2.32,2.32,0,0,1,1.47-.45,2.41,2.41,0,0,1,1.57.48A1.56,1.56,0,0,1,46,66.28h-.65a1,1,0,0,0-.43-.85,1.64,1.64,0,0,0-1.08-.34,1.69,1.69,0,0,0-1,.28.88.88,0,0,0-.38.74.79.79,0,0,0,.32.67,3.27,3.27,0,0,0,1.17.44,5.42,5.42,0,0,1,1.27.43,1.7,1.7,0,0,1,.63.54,1.45,1.45,0,0,1,.2.77,1.41,1.41,0,0,1-.59,1.18,2.53,2.53,0,0,1-1.56.44,2.59,2.59,0,0,1-1.65-.49,1.52,1.52,0,0,1-.63-1.25h.65a1.1,1.1,0,0,0,.47.88,1.94,1.94,0,0,0,1.16.32,1.83,1.83,0,0,0,1.09-.3A.88.88,0,0,0,45.42,69Z"/><path class="cls-1" d="M170.45,70.07a2.82,2.82,0,0,1-.89,1.9,2.92,2.92,0,0,1-2,.65A2.72,2.72,0,0,1,165,71a4.39,4.39,0,0,1-.37-1.83v-1a4.38,4.38,0,0,1,.37-1.86A2.73,2.73,0,0,1,166,65a2.78,2.78,0,0,1,4.42,2.12h-.67a2,2,0,0,0-2.17-2,2,2,0,0,0-1.7.8,3.45,3.45,0,0,0-.63,2.2v1a3.49,3.49,0,0,0,.61,2.17,2,2,0,0,0,1.67.81,2.22,2.22,0,0,0,1.57-.5,2.4,2.4,0,0,0,.65-1.5Z"/><path class="cls-1" d="M175.59,72.52a3,3,0,0,1-.13-.82,2.16,2.16,0,0,1-.86.69,2.79,2.79,0,0,1-1.11.23,2,2,0,0,1-1.36-.46,1.53,1.53,0,0,1-.52-1.19,1.57,1.57,0,0,1,.7-1.35,3.43,3.43,0,0,1,2-.49h1.17v-.66a1.28,1.28,0,0,0-.39-1,1.62,1.62,0,0,0-1.12-.35,1.78,1.78,0,0,0-1.12.34,1,1,0,0,0-.44.83h-.64a1.49,1.49,0,0,1,.64-1.2,2.48,2.48,0,0,1,1.59-.51,2.26,2.26,0,0,1,1.54.49,1.76,1.76,0,0,1,.58,1.36v2.76a3.36,3.36,0,0,0,.18,1.26v.07Zm-2-.47a2.17,2.17,0,0,0,1.16-.31,1.85,1.85,0,0,0,.74-.83V69.62H174.3a2.86,2.86,0,0,0-1.5.36,1.05,1.05,0,0,0-.55.94,1,1,0,0,0,.37.81A1.33,1.33,0,0,0,173.56,72.05Z"/><path class="cls-1" d="M178.43,66.69l0,1a2.33,2.33,0,0,1,.82-.83,2.23,2.23,0,0,1,1.08-.28,1.77,1.77,0,0,1,1.4.53,2.38,2.38,0,0,1,.46,1.58v3.83h-.64V68.69a1.78,1.78,0,0,0-.33-1.17,1.32,1.32,0,0,0-1-.38,1.64,1.64,0,0,0-1.06.38,2.09,2.09,0,0,0-.68,1v4h-.64V66.69Z"/><path class="cls-1" d="M183.62,69.55a3.56,3.56,0,0,1,.6-2.17,2,2,0,0,1,1.65-.8,2,2,0,0,1,1.81,1l0-.84h.6V72.4a2.47,2.47,0,0,1-.63,1.78,2.23,2.23,0,0,1-1.7.66,2.57,2.57,0,0,1-1.16-.27,2.24,2.24,0,0,1-.87-.73l.36-.38a2.05,2.05,0,0,0,1.62.83,1.64,1.64,0,0,0,1.26-.47,1.86,1.86,0,0,0,.47-1.32v-.74a2.06,2.06,0,0,1-1.8.86,1.93,1.93,0,0,1-1.63-.8,3.53,3.53,0,0,1-.61-2.18Zm.65.11a3,3,0,0,0,.45,1.76,1.43,1.43,0,0,0,1.26.65A1.72,1.72,0,0,0,187.66,71V68.29a1.77,1.77,0,0,0-.65-.85,1.71,1.71,0,0,0-1-.3,1.46,1.46,0,0,0-1.27.64A3.26,3.26,0,0,0,184.27,69.66Z"/><path class="cls-1" d="M192.69,67.24a2.06,2.06,0,0,0-.44,0,1.55,1.55,0,0,0-1,.34,1.82,1.82,0,0,0-.59,1v4H190V66.69h.63v.93a1.72,1.72,0,0,1,1.64-1,1.24,1.24,0,0,1,.43.07Z"/><path class="cls-1" d="M195.86,72.62a2.56,2.56,0,0,1-1.34-.36,2.64,2.64,0,0,1-.94-1,3.24,3.24,0,0,1-.33-1.47v-.23a3.49,3.49,0,0,1,.32-1.51,2.56,2.56,0,0,1,.91-1.06,2.23,2.23,0,0,1,1.26-.39,2.1,2.1,0,0,1,1.69.73,3,3,0,0,1,.62,2v.36h-4.16v.12a2.43,2.43,0,0,0,.57,1.65,1.8,1.8,0,0,0,1.43.66,2,2,0,0,0,.91-.19,2,2,0,0,0,.72-.6l.4.31A2.35,2.35,0,0,1,195.86,72.62Zm-.12-5.49a1.62,1.62,0,0,0-1.22.53,2.44,2.44,0,0,0-.61,1.44h3.5V69a2.16,2.16,0,0,0-.48-1.37A1.5,1.5,0,0,0,195.74,67.13Z"/><path class="cls-1" d="M200,66.69v6.52a1.79,1.79,0,0,1-.39,1.24,1.48,1.48,0,0,1-1.14.42,1.59,1.59,0,0,1-.57-.1v-.53a1.61,1.61,0,0,0,.49.07c.64,0,1-.37,1-1.1V66.69Zm-.32-2.12a.43.43,0,0,1,.45.44.41.41,0,0,1-.12.3.45.45,0,0,1-.33.12.42.42,0,0,1-.32-.12.41.41,0,0,1-.12-.3.41.41,0,0,1,.12-.31A.39.39,0,0,1,199.68,64.57Z"/><path class="cls-1" d="M201.46,69.52a3.43,3.43,0,0,1,.33-1.52,2.45,2.45,0,0,1,.92-1,2.5,2.5,0,0,1,1.35-.38,2.36,2.36,0,0,1,1.88.82,3.09,3.09,0,0,1,.73,2.16v.14a3.43,3.43,0,0,1-.33,1.52,2.45,2.45,0,0,1-.92,1,2.52,2.52,0,0,1-1.35.36,2.4,2.4,0,0,1-1.88-.81,3.11,3.11,0,0,1-.73-2.16Zm.65.18a2.65,2.65,0,0,0,.54,1.71,1.83,1.83,0,0,0,2.83,0,2.75,2.75,0,0,0,.55-1.77v-.12a3.11,3.11,0,0,0-.25-1.23,2,2,0,0,0-.7-.85,1.81,1.81,0,0,0-2.43.37,2.75,2.75,0,0,0-.54,1.77Z"/><path class="cls-1" d="M211.49,71a.91.91,0,0,0-.39-.77,2.82,2.82,0,0,0-1.16-.46,4.72,4.72,0,0,1-1.2-.38,1.54,1.54,0,0,1-.64-.52,1.27,1.27,0,0,1-.21-.74,1.4,1.4,0,0,1,.58-1.14,2.33,2.33,0,0,1,1.48-.45,2.38,2.38,0,0,1,1.56.48,1.57,1.57,0,0,1,.59,1.26h-.64a1.07,1.07,0,0,0-.43-.85,1.68,1.68,0,0,0-1.08-.34,1.71,1.71,0,0,0-1,.28.88.88,0,0,0-.39.74.81.81,0,0,0,.32.68,3.38,3.38,0,0,0,1.17.43,5.73,5.73,0,0,1,1.27.43,1.7,1.7,0,0,1,.63.54,1.51,1.51,0,0,1-.39,2,2.53,2.53,0,0,1-1.56.44,2.63,2.63,0,0,1-1.65-.49,1.51,1.51,0,0,1-.63-1.24h.65a1.12,1.12,0,0,0,.47.88,2,2,0,0,0,1.16.31,1.88,1.88,0,0,0,1.09-.29A.89.89,0,0,0,211.49,71Z"/><path class="cls-1" d="M329.64,69.9h-3.56l-.81,2.21h-.69l3-7.85h.63l3,7.85h-.69Zm-3.35-.56h3.14l-1.57-4.27Z"/><path class="cls-1" d="M332.87,72.11h-.65V63.83h.65Z"/><path class="cls-1" d="M335.21,66.28l0,1a2.09,2.09,0,0,1,.8-.79,2.22,2.22,0,0,1,1.08-.27,1.64,1.64,0,0,1,1.75,1.13,2.26,2.26,0,0,1,.84-.84,2.37,2.37,0,0,1,1.15-.29c1.25,0,1.89.68,1.91,2v3.89h-.64V68.27a1.78,1.78,0,0,0-.34-1.16,1.37,1.37,0,0,0-1.08-.38,1.76,1.76,0,0,0-1.18.45,1.64,1.64,0,0,0-.53,1.07v3.86h-.64V68.22A1.65,1.65,0,0,0,338,67.1a1.39,1.39,0,0,0-1.07-.37,1.63,1.63,0,0,0-1,.35,2,2,0,0,0-.65,1v4h-.64V66.28Z"/><path class="cls-1" d="M346.65,72.21a2.56,2.56,0,0,1-1.34-.36,2.64,2.64,0,0,1-.94-1,3.24,3.24,0,0,1-.33-1.47v-.23a3.49,3.49,0,0,1,.32-1.51,2.56,2.56,0,0,1,.91-1.06,2.23,2.23,0,0,1,1.26-.39,2.1,2.1,0,0,1,1.69.73,3,3,0,0,1,.62,2v.36h-4.16v.12a2.43,2.43,0,0,0,.57,1.65,1.8,1.8,0,0,0,1.43.66,2,2,0,0,0,.91-.19,2,2,0,0,0,.72-.6l.4.31A2.35,2.35,0,0,1,346.65,72.21Zm-.12-5.49a1.62,1.62,0,0,0-1.22.53,2.44,2.44,0,0,0-.61,1.44h3.5v-.07a2.16,2.16,0,0,0-.48-1.37A1.5,1.5,0,0,0,346.53,66.72Z"/><path class="cls-1" d="M350.79,66.28V72.8A1.79,1.79,0,0,1,350.4,74a1.48,1.48,0,0,1-1.14.42,1.59,1.59,0,0,1-.57-.1v-.53a1.61,1.61,0,0,0,.49.07c.64,0,1-.37,1-1.1V66.28Zm-.32-2.12a.43.43,0,0,1,.45.44.41.41,0,0,1-.12.3.45.45,0,0,1-.33.12.42.42,0,0,1-.32-.12.41.41,0,0,1-.12-.3.41.41,0,0,1,.12-.31A.39.39,0,0,1,350.47,64.16Z"/><path class="cls-1" d="M356.29,72.11a3,3,0,0,1-.13-.82,2.16,2.16,0,0,1-.86.69,2.79,2.79,0,0,1-1.11.23,2,2,0,0,1-1.36-.46,1.63,1.63,0,0,1,.19-2.54,3.4,3.4,0,0,1,2-.49h1.17v-.66a1.28,1.28,0,0,0-.39-1,1.57,1.57,0,0,0-1.12-.35,1.73,1.73,0,0,0-1.11.34,1,1,0,0,0-.45.83h-.64a1.49,1.49,0,0,1,.64-1.2,2.48,2.48,0,0,1,1.59-.51,2.26,2.26,0,0,1,1.54.49A1.73,1.73,0,0,1,356.8,68v2.76A3.36,3.36,0,0,0,357,72v.07Zm-2-.47a2.17,2.17,0,0,0,1.16-.31,1.85,1.85,0,0,0,.74-.83V69.21H355a2.87,2.87,0,0,0-1.51.36,1.05,1.05,0,0,0-.55.94,1,1,0,0,0,.37.81A1.33,1.33,0,0,0,354.26,71.64Z"/><path class="cls-1" d="M362,70.63a.91.91,0,0,0-.39-.77,2.82,2.82,0,0,0-1.16-.46,4.72,4.72,0,0,1-1.2-.38,1.54,1.54,0,0,1-.64-.52,1.26,1.26,0,0,1-.2-.74,1.39,1.39,0,0,1,.57-1.14,2.35,2.35,0,0,1,1.48-.45,2.38,2.38,0,0,1,1.56.48,1.57,1.57,0,0,1,.59,1.26H362a1.07,1.07,0,0,0-.43-.85,1.68,1.68,0,0,0-1.08-.34,1.71,1.71,0,0,0-1,.28.88.88,0,0,0-.39.74.83.83,0,0,0,.32.68,3.47,3.47,0,0,0,1.17.43,5.73,5.73,0,0,1,1.27.43,1.7,1.7,0,0,1,.63.54,1.51,1.51,0,0,1-.39,2,2.52,2.52,0,0,1-1.55.44,2.64,2.64,0,0,1-1.66-.49,1.51,1.51,0,0,1-.63-1.24h.65a1.12,1.12,0,0,0,.47.88,2,2,0,0,0,1.17.31,1.86,1.86,0,0,0,1.08-.29A.89.89,0,0,0,362,70.63Z"/><path class="cls-1" d="M368.63,71.18l1.71-4.9H371l-2.49,6.82-.13.3a1.56,1.56,0,0,1-1.48,1.06,1.76,1.76,0,0,1-.49-.07v-.54l.33,0a1.16,1.16,0,0,0,.77-.23,1.78,1.78,0,0,0,.5-.8l.29-.79-2.2-5.78h.7Z"/><path class="cls-1" d="M333.14,82.34a3.52,3.52,0,0,1,.32-1.51,2.55,2.55,0,0,1,.92-1,2.49,2.49,0,0,1,1.35-.37,2.41,2.41,0,0,1,1.89.81,3.18,3.18,0,0,1,.72,2.17v.13A3.4,3.4,0,0,1,338,84a2.46,2.46,0,0,1-.91,1,2.58,2.58,0,0,1-1.36.36,2.4,2.4,0,0,1-1.88-.81,3.18,3.18,0,0,1-.72-2.17Zm.64.18a2.66,2.66,0,0,0,.54,1.72,1.78,1.78,0,0,0,1.42.67,1.75,1.75,0,0,0,1.42-.67,2.75,2.75,0,0,0,.54-1.77v-.13a2.9,2.9,0,0,0-.25-1.22,2,2,0,0,0-.69-.86,1.81,1.81,0,0,0-1-.3,1.71,1.71,0,0,0-1.4.67,2.7,2.7,0,0,0-.55,1.77Z"/><path class="cls-1" d="M343.16,83.86a.94.94,0,0,0-.38-.77,3.11,3.11,0,0,0-1.16-.45,5.43,5.43,0,0,1-1.21-.38,1.51,1.51,0,0,1-.63-.52,1.27,1.27,0,0,1-.21-.74,1.39,1.39,0,0,1,.57-1.14,2.35,2.35,0,0,1,1.48-.45,2.43,2.43,0,0,1,1.57.48,1.56,1.56,0,0,1,.59,1.26h-.65a1,1,0,0,0-.43-.85,1.66,1.66,0,0,0-1.08-.34,1.69,1.69,0,0,0-1,.28.87.87,0,0,0-.39.74.78.78,0,0,0,.33.67,3.28,3.28,0,0,0,1.16.44,5.53,5.53,0,0,1,1.28.43,1.59,1.59,0,0,1,.62.54,1.36,1.36,0,0,1,.21.77,1.39,1.39,0,0,1-.6,1.18,2.48,2.48,0,0,1-1.55.44A2.59,2.59,0,0,1,340,85a1.53,1.53,0,0,1-.64-1.25H340a1.14,1.14,0,0,0,.48.88,1.94,1.94,0,0,0,1.16.32,1.83,1.83,0,0,0,1.09-.3A.88.88,0,0,0,343.16,83.86Z"/><path class="cls-1" d="M346.26,78v1.5h1.2V80h-1.2v3.89a1.29,1.29,0,0,0,.17.73.71.71,0,0,0,.59.23,5,5,0,0,0,.52,0l0,.52a2.14,2.14,0,0,1-.69.09,1.18,1.18,0,0,1-1-.38,1.84,1.84,0,0,1-.3-1.14V80h-1.07v-.52h1.07V78Z"/><path class="cls-1" d="M351.49,80.07a2,2,0,0,0-.43,0,1.53,1.53,0,0,0-1,.34,1.84,1.84,0,0,0-.6,1v4h-.64V79.52h.63v.92a1.71,1.71,0,0,1,1.64-1,1,1,0,0,1,.43.07Z"/><path class="cls-1" d="M356,85.34a2.83,2.83,0,0,1-.13-.81,2.14,2.14,0,0,1-.86.68,2.64,2.64,0,0,1-1.11.24,1.93,1.93,0,0,1-1.37-.47A1.52,1.52,0,0,1,352,83.8a1.56,1.56,0,0,1,.7-1.35,3.43,3.43,0,0,1,2-.49h1.17v-.67a1.27,1.27,0,0,0-.39-1,1.59,1.59,0,0,0-1.12-.36,1.78,1.78,0,0,0-1.12.35,1,1,0,0,0-.44.83h-.65a1.5,1.5,0,0,1,.65-1.2,2.48,2.48,0,0,1,1.59-.51,2.26,2.26,0,0,1,1.54.49,1.74,1.74,0,0,1,.58,1.36V84a3.38,3.38,0,0,0,.18,1.27v.06Zm-2-.46a2.17,2.17,0,0,0,1.16-.31,1.88,1.88,0,0,0,.74-.84V82.45h-1.16a3,3,0,0,0-1.5.35,1.07,1.07,0,0,0-.55,1,1,1,0,0,0,.37.81A1.37,1.37,0,0,0,354,84.88Z"/><path class="cls-1" d="M361.7,83.86a.92.92,0,0,0-.39-.77,3,3,0,0,0-1.16-.45,5.16,5.16,0,0,1-1.2-.38,1.54,1.54,0,0,1-.64-.52,1.27,1.27,0,0,1-.21-.74,1.4,1.4,0,0,1,.58-1.14,2.33,2.33,0,0,1,1.48-.45,2.4,2.4,0,0,1,1.56.48,1.56,1.56,0,0,1,.59,1.26h-.65a1,1,0,0,0-.42-.85,1.68,1.68,0,0,0-1.08-.34,1.7,1.7,0,0,0-1,.28.88.88,0,0,0-.38.74.79.79,0,0,0,.32.67,3.27,3.27,0,0,0,1.17.44,5.42,5.42,0,0,1,1.27.43,1.7,1.7,0,0,1,.63.54,1.45,1.45,0,0,1,.2.77,1.41,1.41,0,0,1-.59,1.18,2.53,2.53,0,0,1-1.56.44,2.59,2.59,0,0,1-1.65-.49,1.52,1.52,0,0,1-.63-1.25h.65a1.1,1.1,0,0,0,.47.88,1.94,1.94,0,0,0,1.16.32,1.83,1.83,0,0,0,1.09-.3A.87.87,0,0,0,361.7,83.86Z"/><path class="cls-1" d="M483.42,72.37h3.87v.56h-4.54V65.08h.67Z"/><path class="cls-1" d="M492.09,72.93a3,3,0,0,1-.13-.82,2.14,2.14,0,0,1-.86.68A2.64,2.64,0,0,1,490,73a1.91,1.91,0,0,1-1.36-.47,1.5,1.5,0,0,1-.52-1.18,1.55,1.55,0,0,1,.71-1.35,3.4,3.4,0,0,1,2-.49H492v-.66a1.28,1.28,0,0,0-.39-1,1.57,1.57,0,0,0-1.12-.36,1.73,1.73,0,0,0-1.11.35,1,1,0,0,0-.45.83h-.64a1.49,1.49,0,0,1,.64-1.2,2.5,2.5,0,0,1,1.59-.51,2.24,2.24,0,0,1,1.54.49,1.73,1.73,0,0,1,.58,1.36V71.6a3.36,3.36,0,0,0,.18,1.26v.07Zm-2-.47a2.17,2.17,0,0,0,1.16-.31,1.91,1.91,0,0,0,.74-.83V70h-1.15a2.87,2.87,0,0,0-1.51.36,1.08,1.08,0,0,0-.18,1.75A1.39,1.39,0,0,0,490.06,72.46Z"/><path class="cls-1" d="M494.93,67.1l0,1a2.47,2.47,0,0,1,.82-.82,2.13,2.13,0,0,1,1.09-.28,1.74,1.74,0,0,1,1.39.53,2.33,2.33,0,0,1,.46,1.58v3.83h-.64V69.1a1.78,1.78,0,0,0-.33-1.17,1.31,1.31,0,0,0-1-.38,1.63,1.63,0,0,0-1.06.37,2.21,2.21,0,0,0-.68,1v4h-.64V67.1Z"/><path class="cls-1" d="M500.12,70a3.47,3.47,0,0,1,.61-2.17,2,2,0,0,1,1.64-.8,2,2,0,0,1,1.81,1l0-.84h.61v5.71a2.47,2.47,0,0,1-.63,1.78,2.25,2.25,0,0,1-1.71.66,2.6,2.6,0,0,1-1.16-.27,2.33,2.33,0,0,1-.87-.73l.36-.39a2.05,2.05,0,0,0,1.63.84,1.71,1.71,0,0,0,1.26-.47,2,2,0,0,0,.47-1.33v-.73a2.09,2.09,0,0,1-1.81.86,2,2,0,0,1-1.63-.8,3.54,3.54,0,0,1-.61-2.19Zm.65.11a3,3,0,0,0,.45,1.76,1.45,1.45,0,0,0,1.26.64,1.73,1.73,0,0,0,1.69-1.06V68.7a1.88,1.88,0,0,0-.66-.86,1.78,1.78,0,0,0-1-.29,1.47,1.47,0,0,0-1.27.64A3.24,3.24,0,0,0,500.77,70.07Z"/><path class="cls-1" d="M506.14,69.93a3.43,3.43,0,0,1,.33-1.52,2.48,2.48,0,0,1,.92-1,2.58,2.58,0,0,1,1.35-.37,2.38,2.38,0,0,1,1.88.82,3.14,3.14,0,0,1,.73,2.16v.13a3.4,3.4,0,0,1-.33,1.52,2.42,2.42,0,0,1-.92,1,2.52,2.52,0,0,1-1.35.36,2.4,2.4,0,0,1-1.88-.81,3.13,3.13,0,0,1-.73-2.17Zm.65.17a2.66,2.66,0,0,0,.54,1.72,1.83,1.83,0,0,0,2.83,0,2.75,2.75,0,0,0,.54-1.77v-.12a3.07,3.07,0,0,0-.24-1.23,2.07,2.07,0,0,0-.7-.86,1.8,1.8,0,0,0-1-.3,1.71,1.71,0,0,0-1.41.68,2.74,2.74,0,0,0-.54,1.76Z"/><path class="cls-1" d="M516.17,71.44a.92.92,0,0,0-.39-.77,3,3,0,0,0-1.16-.45,5.16,5.16,0,0,1-1.2-.38,1.54,1.54,0,0,1-.64-.52,1.27,1.27,0,0,1-.21-.74,1.38,1.38,0,0,1,.58-1.14,2.33,2.33,0,0,1,1.48-.45,2.38,2.38,0,0,1,1.56.48,1.56,1.56,0,0,1,.59,1.26h-.65a1.06,1.06,0,0,0-.42-.85,1.68,1.68,0,0,0-1.08-.34,1.7,1.7,0,0,0-1,.28.9.9,0,0,0-.38.74.79.79,0,0,0,.32.67,3.27,3.27,0,0,0,1.17.44,5.93,5.93,0,0,1,1.27.43,1.7,1.7,0,0,1,.63.54,1.45,1.45,0,0,1,.2.77,1.41,1.41,0,0,1-.59,1.18,2.53,2.53,0,0,1-1.56.44,2.59,2.59,0,0,1-1.65-.49,1.52,1.52,0,0,1-.63-1.25H513a1.1,1.1,0,0,0,.47.88,2,2,0,0,0,1.16.32,1.83,1.83,0,0,0,1.09-.3A.87.87,0,0,0,516.17,71.44Z"/><path class="cls-1" d="M519.26,65.61V67.1h1.21v.53h-1.21v3.88a1.21,1.21,0,0,0,.18.73.68.68,0,0,0,.58.23,3.4,3.4,0,0,0,.53,0l0,.52a2.14,2.14,0,0,1-.69.09,1.13,1.13,0,0,1-1-.38,1.84,1.84,0,0,1-.3-1.14V67.63h-1.07V67.1h1.07V65.61Z"/><path class="cls-1" d="M525.48,72.93a3.5,3.5,0,0,1-.12-.82,2.21,2.21,0,0,1-.86.68,2.68,2.68,0,0,1-1.12.24,1.93,1.93,0,0,1-1.36-.47,1.53,1.53,0,0,1-.52-1.18,1.57,1.57,0,0,1,.71-1.35,3.41,3.41,0,0,1,2-.49h1.16v-.66a1.27,1.27,0,0,0-.38-1,1.59,1.59,0,0,0-1.12-.36,1.78,1.78,0,0,0-1.12.35,1,1,0,0,0-.44.83h-.65a1.5,1.5,0,0,1,.65-1.2,2.48,2.48,0,0,1,1.59-.51,2.26,2.26,0,0,1,1.54.49,1.76,1.76,0,0,1,.58,1.36V71.6a3.39,3.39,0,0,0,.17,1.26v.07Zm-2-.47a2.13,2.13,0,0,0,1.15-.31,1.85,1.85,0,0,0,.74-.83V70H524.2a2.93,2.93,0,0,0-1.51.36,1.09,1.09,0,0,0-.18,1.75A1.42,1.42,0,0,0,523.46,72.46Z"/><path class="cls-1" d="M531.21,71.44a.92.92,0,0,0-.39-.77,3,3,0,0,0-1.16-.45,5.16,5.16,0,0,1-1.2-.38,1.54,1.54,0,0,1-.64-.52,1.27,1.27,0,0,1-.21-.74,1.38,1.38,0,0,1,.58-1.14,2.3,2.3,0,0,1,1.47-.45,2.41,2.41,0,0,1,1.57.48,1.56,1.56,0,0,1,.59,1.26h-.65a1,1,0,0,0-.43-.85,1.64,1.64,0,0,0-1.08-.34,1.69,1.69,0,0,0-1,.28.9.9,0,0,0-.38.74.79.79,0,0,0,.32.67,3.27,3.27,0,0,0,1.17.44,5.93,5.93,0,0,1,1.27.43,1.7,1.7,0,0,1,.63.54,1.45,1.45,0,0,1,.2.77,1.41,1.41,0,0,1-.59,1.18,2.53,2.53,0,0,1-1.56.44,2.59,2.59,0,0,1-1.65-.49,1.52,1.52,0,0,1-.63-1.25h.64a1.14,1.14,0,0,0,.48.88,1.94,1.94,0,0,0,1.16.32,1.83,1.83,0,0,0,1.09-.3A.87.87,0,0,0,531.21,71.44Z"/><path class="cls-2" d="M28.43,0A28.43,28.43,0,1,0,56.86,28.43,28.43,28.43,0,0,0,28.43,0ZM47.52,22.63a6.25,6.25,0,0,1-.31,1.2,6,6,0,0,1-.57,1.1,8.36,8.36,0,0,1-1.48,1.67,17.63,17.63,0,0,1-1.53,1.19,8.24,8.24,0,0,1-1.53.87A4.74,4.74,0,0,1,41,29v0a29,29,0,0,1-2,3.89c-.8,1.29-1.7,2.56-2.63,3.78-.55.73-1.12,1.43-1.68,2.13.34-.16.7-.34,1.07-.55a22.66,22.66,0,0,0,2.42-1.51c.38-.28.74-.56,1.06-.84s.61-.55.88-.81c.53-.51.92-.9,1.27-1.2a4.74,4.74,0,0,1,.92-.63,2.24,2.24,0,0,1,.66-.24,1,1,0,0,1,.26,0,.74.74,0,0,1,.22.16,1.33,1.33,0,0,1,.35.66,2.74,2.74,0,0,1-.09,1.44,5.12,5.12,0,0,1-1.37,2.13,7.35,7.35,0,0,1-1.35,1,9.15,9.15,0,0,1-1.59.73,12.22,12.22,0,0,1-3.2.65,16,16,0,0,1-2.31,0c-.74.91-1.46,1.81-2.15,2.68A13,13,0,0,0,29.25,48H24.79c-.07-1.55-1.41-4.46-2.41-6.33v0l-.77-1.42c-.29-.54-.59-1.06-.91-1.55-.15-.22-.31-.43-.47-.64L20,38c-.38.06-.81.11-1.27.15s-.94,0-1.45,0-1,0-1.53-.1a14.87,14.87,0,0,1-1.51-.26,7.15,7.15,0,0,1-.7-.2,6.4,6.4,0,0,1-.66-.23,5.91,5.91,0,0,1-1.82-1.09,2.82,2.82,0,0,1-.74-1,1.3,1.3,0,0,1-.06-1,1.47,1.47,0,0,1,.85-.44,3.42,3.42,0,0,1,1.16,0,8.81,8.81,0,0,1,1.79.53l.56.24.59.25,1.24.56c.42.2.84.38,1.27.57s.83.34,1.22.5c-.45-.44-.94-.86-1.43-1.28-1.54-1.22-3.65-2.4-6.72-4.71S6.38,23.8,9,22.92s3,2.58,4.82,4.82c0-.11,0-.23-.07-.35-.17-.84-.35-1.76-.56-2.61-.1-.43-.21-.84-.33-1.22s-.22-.73-.32-1.06a8.63,8.63,0,0,1-.42-1.76,2.9,2.9,0,0,1,.1-1.2,1.34,1.34,0,0,1,.55-.78,1.56,1.56,0,0,1,.93.19,2.78,2.78,0,0,1,.91.74,5.61,5.61,0,0,1,1,1.85A7,7,0,0,1,15.82,23a9,9,0,0,1,0,1.56,15.77,15.77,0,0,1-.53,2.87c-.12.42-.24.81-.35,1.17,0,.08,0,.15-.07.22q.64.63,1.47,1.35c.82.71,1.73,1.49,2.67,2.37a20.4,20.4,0,0,1,2.7,3,13,13,0,0,1,1.1,1.82,18.16,18.16,0,0,1,.78,1.87c.39,1.1.71,2.12,1.11,3-.11-.52-.21-1-.33-1.56A15.27,15.27,0,0,0,23.87,39c-.21-.61-.43-1.23-.64-1.85a17.56,17.56,0,0,1-.57-2c-.08-.36-.12-.72-.17-1.08v0c-.3-.24-.61-.51-.94-.82a18.51,18.51,0,0,1-3.3-4,18.49,18.49,0,0,1-1.31-2.68,17.12,17.12,0,0,1-.84-2.88,15.19,15.19,0,0,1-.27-2h0c-.35-2.41-1-10,2.57-9.83s1,5.08.59,9c0,.75.05,1.56.13,2.39,0,.4.09.81.16,1.22l.15-.37c.15-.43.3-.88.43-1.34s.24-.94.34-1.42c.2-.94.35-1.89.5-2.71a10.57,10.57,0,0,1,.54-2,3.41,3.41,0,0,1,.63-1.08,1.46,1.46,0,0,1,.82-.53,1.33,1.33,0,0,1,.77.62,3.12,3.12,0,0,1,.46,1.25,6.57,6.57,0,0,1-.08,2.3,11,11,0,0,1-1.11,3.07,13.23,13.23,0,0,1-.92,1.45,11.66,11.66,0,0,1-2.24,2.27,22.61,22.61,0,0,0,.66,2.31,21.77,21.77,0,0,0,1,2.35c.36.73.75,1.4,1.12,2l.09.13a19.13,19.13,0,0,1,.31-3.59c.15-.8.31-1.52.47-2.17h0c.8-4.58,0-8.38,2.93-8S26.6,24.82,26,28c0,.13-.05.27-.07.4s0,.22-.06.32c-.06.29-.11.58-.16.88a21.75,21.75,0,0,0-.4,3.35,8,8,0,0,0,0,.85,8.28,8.28,0,0,0,.06.86c.07.57.19,1.18.32,1.8s.3,1.27.44,1.94a20.09,20.09,0,0,1,.31,2c.11,1.25.12,2.41.19,3.48l.06-.84c.11-1.51.27-3.11.5-4.75s.54-3.3.91-5c.18-.83.39-1.64.6-2.46a24.76,24.76,0,0,1,.77-2.45,13.08,13.08,0,0,1,1.14-2.35,23,23,0,0,1,1.33-2l.06-.08a9.49,9.49,0,0,1-.74-.78,17.26,17.26,0,0,1-1.1-1.37l-.55-.81c-.19-.29-.35-.58-.53-.89a16.24,16.24,0,0,1-.93-1.92c-1.3-3-2.88-9.52,0-9.69s1.74,4,2.26,8c.05.31.09.63.16.94.11.63.25,1.26.41,1.88.08.31.15.61.24.91l.27.87c.2.56.38,1.09.58,1.56a7.91,7.91,0,0,0,.32.76A23.93,23.93,0,0,0,34,21.19c1.71-6.07,2.34-9.08,4.81-8.06s0,7.59-3.47,11.45h0c-.31.45-.63.9-1,1.35s-.85,1.16-1.23,1.74a12.72,12.72,0,0,0-1,1.87c-.35.78-.66,1.65-1,2.55h0l.33-.28.33-.31c.21-.21.41-.43.6-.65s.18-.22.27-.33a3.92,3.92,0,0,0,.25-.32l.12-.15.11-.16c.08-.1.16-.19.22-.28a4.28,4.28,0,0,1,.8-.8,2.39,2.39,0,0,1,.73-.37,2.07,2.07,0,0,1,.58-.11,1.22,1.22,0,0,1,.24,0,.83.83,0,0,1,.21.12,1.33,1.33,0,0,1,.37.48,1.8,1.8,0,0,1,.13,1,3.21,3.21,0,0,1-.72,1.53,2.93,2.93,0,0,1-.38.41l-.21.2-.23.18a3.54,3.54,0,0,1-.49.34,5.45,5.45,0,0,1-.53.29,6.14,6.14,0,0,1-1.13.41l-.55.12-.54.06a6.18,6.18,0,0,1-1,0l-.18.54c-.49,1.57-.94,3.15-1.34,4.71s-.74,3.09-1,4.54c0,.2-.07.38-.11.57-.21,1.2,0,1.86.41,1.06l.16-.34h0c.29-.58.61-1.18.95-1.78,1.35-2.42,3.06-5,4.65-7.52.79-1.27,1.55-2.53,2.23-3.78S37.7,29,38.18,27.87c.2-.46.37-.9.52-1.33a1.54,1.54,0,0,1,.08-.19c.09-.26.17-.52.26-.76.9-3,1.58-9.75,3.49-9.28,2.07.51,1.36,4.63-.76,10.4h0c-.12.42-.26.86-.43,1.3l.21-.19a9.27,9.27,0,0,0,1-1.18c.32-.45.68-1,1-1.47a7.63,7.63,0,0,0,.74-1.49,3.92,3.92,0,0,0,.18-.69c0-.21,0-.43,0-.66,0-.47,0-1-.09-1.52-.08-1-.13-1.82-.12-2.45a5.34,5.34,0,0,1,.17-1.46,2.1,2.1,0,0,1,.34-.72A.77.77,0,0,1,45,16a.62.62,0,0,1,.27,0,1.74,1.74,0,0,1,.71.4,3.92,3.92,0,0,1,.93,1.33,7.94,7.94,0,0,1,.68,2.81A8.62,8.62,0,0,1,47.52,22.63Z"/><path class="cls-2" d="M25.89,28.41c0-.13.05-.27.07-.4,0,.14-.05.27-.07.4Z"/><path class="cls-2" d="M39,25.59c-.09.24-.17.5-.26.76a.25.25,0,0,1,0-.07Q38.92,26,39,25.59Z"/><path class="cls-2" d="M28.44,44.91c0-.09.1-.2.16-.34Z"/><path class="cls-2" d="M25.89,28.41l-.06.32C25.85,28.63,25.87,28.53,25.89,28.41Z"/><path class="cls-2" d="M38.7,26.54c0-.06,0-.13.08-.19A1.54,1.54,0,0,0,38.7,26.54Z"/><path class="cls-2" d="M28.61,44.56h0Z"/><path class="cls-2" d="M188.05,0a28.6,28.6,0,1,0,28.6,28.6A28.59,28.59,0,0,0,188.05,0ZM201,26.37a4,4,0,0,1-1.38,2,4.21,4.21,0,0,1,.2,4.77A6.63,6.63,0,0,1,201.55,35a8.33,8.33,0,0,1,1.21,2.62,5.75,5.75,0,0,1,.25,2.5.15.15,0,0,1-.3,0,8.2,8.2,0,0,0-.74-2.31,9.87,9.87,0,0,0-1.39-2.09,4.6,4.6,0,0,0-1.74-1.29l0,0a7.7,7.7,0,0,1-1.17,1,4.58,4.58,0,0,1,1.29,1,6.47,6.47,0,0,1,1.14,2.36,8.22,8.22,0,0,1,.33,2.87,5.78,5.78,0,0,1-.56,2.44.15.15,0,0,1-.27-.1,8.53,8.53,0,0,0,0-2.42,9.76,9.76,0,0,0-.66-2.42,5.25,5.25,0,0,0-2.87-2.82c-.31.15-.63.28-.95.4A5.11,5.11,0,0,1,196.39,38a6.45,6.45,0,0,1,.92,2.46,8.26,8.26,0,0,1,.05,2.89,5.92,5.92,0,0,1-.78,2.38.15.15,0,0,1-.27-.13,8.11,8.11,0,0,0,.25-2.4,10,10,0,0,0-.42-2.48,5.53,5.53,0,0,0-3-3.32l-.07,0a20.07,20.07,0,0,1-5.11.3,20,20,0,0,1-5.1-.3l-.07,0a5.5,5.5,0,0,0-3.05,3.32,9.54,9.54,0,0,0-.42,2.48,8.44,8.44,0,0,0,.24,2.4.15.15,0,0,1-.26.13,5.63,5.63,0,0,1-.78-2.38,8.26,8.26,0,0,1,.05-2.89,6.45,6.45,0,0,1,.92-2.46,5.11,5.11,0,0,1,1.28-1.22,10,10,0,0,1-.95-.4,5.22,5.22,0,0,0-2.87,2.82,9.35,9.35,0,0,0-.66,2.42,8.53,8.53,0,0,0,0,2.42.15.15,0,0,1-.27.1,5.78,5.78,0,0,1-.56-2.44,8.45,8.45,0,0,1,.32-2.87,6.33,6.33,0,0,1,1.15-2.36,4.58,4.58,0,0,1,1.29-1,8.29,8.29,0,0,1-1.18-1l0,0a4.6,4.6,0,0,0-1.74,1.29,9.5,9.5,0,0,0-1.39,2.09,8.56,8.56,0,0,0-.75,2.31.15.15,0,0,1-.29,0,5.75,5.75,0,0,1,.25-2.5A8.11,8.11,0,0,1,174.28,35a6.6,6.6,0,0,1,1.77-1.84,4.2,4.2,0,0,1,.07-4.57,4.05,4.05,0,0,1-1.64-2.2,6.05,6.05,0,0,1,0-2.84c-3-1.32-4.18-5.93-2.77-9.21.8-1.85,3.14-4.91,5.28-5.19,1.45-.19,2.84-.21,3.63.46a2.76,2.76,0,0,1,.88,2c-.17.71-.14,1.57-1.07,1.62a1.25,1.25,0,0,1-.85,1.33,3.46,3.46,0,0,1-.71.18c-.05,0,0,.37-.08.47a2.59,2.59,0,0,1-1.16,1.1c.17.49.35,1,.48,1.48l.17-.13c.19-.11.67-.15.74-.25a3.08,3.08,0,0,1,0-.92c.19-.84.51-.81,1.15-1.09a1.58,1.58,0,0,1,.44-.08,1.2,1.2,0,0,1,.65-1c1.93-.91,1.69,2.54,1.53,3.42-.41,2.13-2.53,5-4.6,5.77a5.33,5.33,0,0,1-1.28.32,3.9,3.9,0,0,0-.08,1.62,1.8,1.8,0,0,0,.95,1.23,2.11,2.11,0,0,1,.23-.19c2.27-1.88,4.17-3.63,6.74-4.4a5,5,0,0,1-.4-.75,7.15,7.15,0,0,1-.53-2.28s0,0,0,0a1.28,1.28,0,0,1,1.3-1.46,1.32,1.32,0,0,1,1.27,1.69c0,.48-.14,1-.22,1.43a11,11,0,0,0-.09,1.13,15.28,15.28,0,0,1,3.66,0c0-.38,0-.75-.1-1.13s-.17-1-.22-1.45a1.32,1.32,0,0,1,1.28-1.67A1.29,1.29,0,0,1,192,19v0a7.15,7.15,0,0,1-.53,2.28,8,8,0,0,1-.4.75c2.57.76,4.48,2.51,6.75,4.4l.05,0a1.69,1.69,0,0,0,.73-1.08,4.07,4.07,0,0,0-.08-1.62,5.52,5.52,0,0,1-1.29-.32c-2.06-.74-4.19-3.64-4.59-5.77-.17-.88-.4-4.33,1.52-3.42a1.19,1.19,0,0,1,.66,1,1.58,1.58,0,0,1,.44.08c.64.28,1,.25,1.15,1.09a3.49,3.49,0,0,1,0,.92c.07.1.55.14.74.25l.17.13c.13-.49.31-1,.47-1.48a2.69,2.69,0,0,1-1.16-1.1c-.07-.1,0-.42-.08-.47a3.56,3.56,0,0,1-.7-.18,1.27,1.27,0,0,1-.86-1.33c-.93-.05-.9-.91-1.07-1.62a2.83,2.83,0,0,1,.89-2c.78-.67,2.18-.65,3.62-.46,2.14.28,4.49,3.34,5.29,5.19,1.41,3.28.25,7.89-2.77,9.21A6.05,6.05,0,0,1,201,26.37Z"/><path class="cls-2" d="M347.66,0a28.43,28.43,0,1,0,28.43,28.43A28.43,28.43,0,0,0,347.66,0Zm13,28.27a8.11,8.11,0,0,1-2.95,3.53c-1.41,1-3,1.77-4.42,2.75l-1.11.77c.1.4.16.81.22,1.21a6.68,6.68,0,0,1,.12,1.94c-.07.45-.23.8-.7.9a1.49,1.49,0,0,1-1.24-.28c-.22-.17-.41-.37-.63-.55s-.46-.31-.68-.47a3.58,3.58,0,0,0-1-.57l0,0a1.4,1.4,0,0,1-.88.32,1.28,1.28,0,0,1-1,0l-.09,0a6.17,6.17,0,0,0-.92.3,17.27,17.27,0,0,0-1.95,1.34,2.71,2.71,0,0,1-1.52.38c-.5,0-.62-.45-.59-.91a6.75,6.75,0,0,1,.65-2.1,2.53,2.53,0,0,0,.17-1.16c-.76-.48-1.5-1-2.23-1.51a17.22,17.22,0,0,1-5-4.8,11.63,11.63,0,0,1-1.65-4.16,3.51,3.51,0,0,1,.4-2.46,2.54,2.54,0,0,1,2.55-1A6.63,6.63,0,0,1,337,22c0-.15,0-.3,0-.45a4.17,4.17,0,0,1,1.84-3.16,3.2,3.2,0,0,1,4,.6,4.23,4.23,0,0,1,.83,1.46,8.64,8.64,0,0,1,1.41-2.69,3,3,0,0,1,1.78-1.13,3.28,3.28,0,0,1,2.41.84A4.92,4.92,0,0,1,351,19.74a4.43,4.43,0,0,1,1.83-1.23,3.16,3.16,0,0,1,3.45,1.17,3.85,3.85,0,0,1,.87,2.95,3.24,3.24,0,0,1,2.7.95A4.54,4.54,0,0,1,360.68,28.27Z"/><path class="cls-2" d="M357.55,25.2h0Z"/><path class="cls-2" d="M357.72,25.23l.09,0h0Z"/><path class="cls-2" d="M335.84,24.2v0Z"/><path class="cls-2" d="M507.11,0a28.43,28.43,0,1,0,28.43,28.43A28.43,28.43,0,0,0,507.11,0Zm13.18,25.82s1.17-.93.9-2a2.19,2.19,0,0,1-.78,3.17s-.22-1-1.06-1a2.15,2.15,0,0,1,1-2.05A2.15,2.15,0,0,0,520.29,25.82Zm-3.13,1.47,2-1.27a1.12,1.12,0,0,1,1.12.73c.44.84-2.27,1.83-2.27,1.83C518,28,517.16,27.29,517.16,27.29Zm1.29-4.84a1.67,1.67,0,0,0,.79-1.76s1.39,1.55-.56,3.4c0,0-.21-1.3-1.22-1.36a2.14,2.14,0,0,1,1.29-2A1.87,1.87,0,0,0,518.45,22.45Zm.06,1.33c.27.78-1.18,1.55-1.18,1.55.14-1.09-1.19-1.49-1.19-1.49s.6-.56,1-.87S518.25,23,518.51,23.78Zm-1.36,1.57c-.11.74-1.73,1.27-1.73,1.27a1.46,1.46,0,0,0-.92-1.27,10.06,10.06,0,0,1,1.32-1.24C516.29,23.81,517.25,24.61,517.15,25.35Zm-3.18-1a12.42,12.42,0,0,1-1,1.05,23.85,23.85,0,0,0-.61-2.89c.72,0,1.71-.31,1.87-.15S514.91,23.22,514,24.39Zm0,1.44c.42-.54,1.05-.36,1.32.6.13.46-.85,1.4-1.91,2.26,0-.66-.09-1.27-.15-1.85C513.52,26.4,513.78,26,513.93,25.83Zm2,3.85c.09.43-1.17,1-2.46,1.44,0-.56,0-1.09,0-1.6.75-.51,1.37-1,1.53-1C515.24,28.37,515.72,28.81,515.88,29.68Zm-2.46,3a7.12,7.12,0,0,0,1.29-.62c.63-.42,1.23.39.75,1.32-.2.38-1.1.62-2.09.78C513.39,33.63,513.41,33.14,513.42,32.66Zm2-.74a5,5,0,0,0,1.94-.29,1.15,1.15,0,0,1,.61,1.35c-.26.94-2.43.58-2.43.58A1.2,1.2,0,0,0,515.38,31.92Zm.6-2.11a2.56,2.56,0,0,0-.83-1.47,2.75,2.75,0,0,0,1.22-.57c.54-.45.7-.41.7-.41a1.78,1.78,0,0,1,.73,1.11C517.87,29.12,516,29.81,516,29.81Zm0-21.07c-1.23,2.51,0,6.33,0,6.33-2-.2-2.59.5-2.59.5C512.15,10.17,516,8.74,516,8.74Zm1.12,6c1.57-1.4.31-6.14.31-6.14a7.71,7.71,0,0,1,2.84,6.14c-.18,3.88-4.33,5.68-4.33,5.68s0-.47-1-1.17a2.34,2.34,0,0,0-2.28-.38C512.88,13.48,515.54,16.17,517.12,14.77Zm-4.51,4.34c1.12-.75,3.06.72,3.23,1.37s-1.19,2.25-1.19,2.25c0-.76-1-.61-1.44-.46a2.86,2.86,0,0,1-.86.11c-.07-.22-.14-.43-.2-.63-.17-.47-.33-.89-.5-1.26A2.81,2.81,0,0,1,512.61,19.11Zm-10.16,1.38a13.24,13.24,0,0,0-.5,1.26c-.06.2-.13.41-.2.63a2.86,2.86,0,0,1-.86-.11c-.4-.15-1.43-.3-1.44.46,0,0-1.35-1.6-1.19-2.25s2.11-2.12,3.23-1.37A2.81,2.81,0,0,1,502.45,20.49Zm-6.32,8.09s-2.71-1-2.27-1.83A1.12,1.12,0,0,1,495,26l2,1.27S496.07,28,496.13,28.58Zm-.48-6.13a1.87,1.87,0,0,0-.3-1.76,2.14,2.14,0,0,1,1.29,2c-1,.06-1.22,1.36-1.22,1.36-1.95-1.85-.56-3.4-.56-3.4A1.67,1.67,0,0,0,495.65,22.45Zm1.12,2.88s-1.45-.77-1.18-1.55.94-1.12,1.35-.81,1,.87,1,.87S496.63,24.24,496.77,25.33Zm1.51-1.22a10.06,10.06,0,0,1,1.32,1.24,1.46,1.46,0,0,0-.92,1.27s-1.62-.53-1.73-1.27S497.81,23.81,498.28,24.11ZM497,27.36s.16,0,.7.41a2.75,2.75,0,0,0,1.22.57,2.56,2.56,0,0,0-.83,1.47s-1.89-.69-1.82-1.34A1.78,1.78,0,0,1,497,27.36Zm2.16,1.13c.16.06.78.52,1.53,1,0,.51,0,1,0,1.6-1.29-.45-2.55-1-2.46-1.44C498.38,28.81,498.86,28.37,499.19,28.49Zm-.47,3.43a1.2,1.2,0,0,0-.12,1.64s-2.17.36-2.43-.58a1.15,1.15,0,0,1,.61-1.35A5,5,0,0,0,498.72,31.92Zm.67.12a7.12,7.12,0,0,0,1.29.62c0,.48,0,1,.05,1.48-1-.16-1.89-.4-2.09-.78C498.16,32.43,498.76,31.62,499.39,32Zm-.54-5.61c.27-1,.9-1.14,1.32-.6.15.2.41.57.74,1-.06.58-.11,1.19-.15,1.85C499.7,27.83,498.72,26.89,498.85,26.43Zm1.28-2c-.94-1.17-.53-1.76-.31-2s1.16.13,1.88.15a23.85,23.85,0,0,0-.61,2.89A12.42,12.42,0,0,1,500.13,24.39Zm-2-15.65s3.85,1.43,2.59,6.83c0,0-.55-.7-2.59-.5C498.1,15.07,499.33,11.25,498.1,8.74Zm-1.43-.11s-1.26,4.74.31,6.14,4.24-1.29,4.42,4.13a2.34,2.34,0,0,0-2.28.38c-.95.7-1,1.17-1,1.17s-4.15-1.8-4.33-5.68A7.71,7.71,0,0,1,496.67,8.63Zm-3.76,15.16c-.27,1.1.9,2,.9,2a2.15,2.15,0,0,0-.08-1.95,2.15,2.15,0,0,1,1,2.05c-.84.08-1.06,1-1.06,1A2.19,2.19,0,0,1,492.91,23.79Zm-.38,5.93c0,.72,1.36,1,1.36,1,.28-.66-.42-1.3-.42-1.3,1,.1,1.35,1.67,1.35,1.67-.64.28-.61,1.29-.61,1.29A2.5,2.5,0,0,1,492.53,29.72Zm1.75,2.56a1.79,1.79,0,0,1,.6-1.14l1.73.45a1.36,1.36,0,0,0-.42,1.72S494.28,32.89,494.28,32.28Zm1.66,1.86c0,.63.9,1,.9,1a1,1,0,0,0-.33-1.11c.88,0,1.05,1.11,1.05,1.11a1.24,1.24,0,0,0-.43,1.1C495.21,35.52,495.94,34.14,495.94,34.14Zm1.25,1.76c.19-.7.46-.79.49-.77l1,.33a.89.89,0,0,0-.15,1.32S497,36.6,497.19,35.9Zm1.33.68c-.33-.48.34-1.12.34-1.12l1.53.13a.79.79,0,0,0-.1,1.31S498.84,37.05,498.52,36.58Zm1.94.27c-.67-.22-.38-1.3.32-1.27h0q0,.64.09,1.32A1.2,1.2,0,0,1,500.46,36.85Zm2.46,7.72c-.26-.93,1.27-1.29,1.69-1.37a1.52,1.52,0,0,0-.08,1,.65.65,0,0,0,.29.34l-.91,1S503.21,45.65,502.92,44.57Zm.26-22,.48,1.85a10.08,10.08,0,0,0-.48,3s-.67-.57-1.43-1.28a25.26,25.26,0,0,1,.94-3.81A.55.55,0,0,1,503.18,22.54Zm-.43-.45c0-.07.05-.14.07-.2,0,.16,0,.26,0,.26S502.84,22.1,502.75,22.09Zm8.66.18a25.26,25.26,0,0,1,.94,3.81c-.76.71-1.43,1.28-1.43,1.28a10.08,10.08,0,0,0-.48-3l.48-1.85A.55.55,0,0,1,511.41,22.27Zm-.17-.12s0-.1,0-.26c0,.06,0,.13.07.2S511.24,22.15,511.24,22.15Zm-4.19,22.19c-1.28.16-1.2.57-2.1.19-.61-.27-.37-1.06-.16-1.55a1.42,1.42,0,0,0,.49.1,1.91,1.91,0,0,0,.6-.13,2.58,2.58,0,0,1,2.34,0,1.91,1.91,0,0,0,.6.13,1.42,1.42,0,0,0,.49-.1c.21.49.45,1.28-.16,1.55C508.25,44.91,508.33,44.5,507.05,44.34Zm1.47,1.53c-.63.38-.57,0-1.47-.18-.9.15-.84.56-1.47.18-.31-.19-.3-.68-.22-1.12a.71.71,0,0,0,.2,0,1.29,1.29,0,0,0,.5-.11,2.25,2.25,0,0,1,2,0,1.29,1.29,0,0,0,.5.11.71.71,0,0,0,.2,0C508.82,45.19,508.83,45.68,508.52,45.87Zm-1.47-3.29c-1.52.19-1.42.67-2.49.22-.84-.36-.32-1.58-.07-2.07a2.22,2.22,0,0,0,.58.09,2.6,2.6,0,0,0,.65-.11,3.66,3.66,0,0,1,2.66,0,2.6,2.6,0,0,0,.65.11,2.22,2.22,0,0,0,.58-.09c.25.49.77,1.71-.07,2.07C508.47,43.25,508.57,42.77,507.05,42.58Zm2.8-2c-1.2.4-1.09,0-2.8-.2-1.71.17-1.6.6-2.8.2-1-.34-.29-1.54,0-1.93h0a2.59,2.59,0,0,0,.84.17,2.24,2.24,0,0,0,.65-.12,3.81,3.81,0,0,1,2.66,0,2.24,2.24,0,0,0,.65.12h0a2.59,2.59,0,0,0,.84-.17h0C510.14,39,510.85,40.23,509.85,40.57Zm0-2c-1.2.41-1.09,0-2.8-.19-1.71.16-1.6.6-2.8.19-1-.35-.25-1.61,0-2a.75.75,0,0,0,.07.12.45.45,0,0,0,.43.21,3.44,3.44,0,0,0,.72-.12,4.82,4.82,0,0,1,3.18,0,3.44,3.44,0,0,0,.72.12.45.45,0,0,0,.43-.21.75.75,0,0,0,.07-.12C510.1,37,510.88,38.21,509.85,38.56Zm-5.52-2.67.08.18.06-.27s.12-.5.53-.5a.39.39,0,0,1,.15,0,17.39,17.39,0,0,0,1.89.24h0a17.39,17.39,0,0,0,1.89-.24.39.39,0,0,1,.15,0c.41,0,.52.48.53.5l.06.27.08-.18a.83.83,0,0,1,0,.79c-.29.45-1.09-.12-2.67-.22-1.58.1-2.38.67-2.67.22A.83.83,0,0,1,504.33,35.89Zm5.59.45a1.14,1.14,0,0,0-.07-.56l.14-.32c.52.06,2.07.12,3,.12,0,.45,0,.89,0,1.3A25,25,0,0,1,509.92,36.34Zm.45-1.94a5.78,5.78,0,0,0,.23-1,8.53,8.53,0,0,0,2.34-.52c0,.46,0,.92,0,1.36C511.66,34.36,510.37,34.4,510.37,34.4Zm.43-2.48a2.75,2.75,0,0,0,.08-1.11,7.22,7.22,0,0,0,1.92-.92q.06.72.09,1.41C511.79,31.67,510.8,31.92,510.8,31.92Zm.12-1.44V29.2a8.49,8.49,0,0,0,1.66-1.58c.06.52.12,1,.16,1.54C511.79,29.9,510.92,30.48,510.92,30.48Zm-.21-3.87c.31,5.1-.24,6.8-.24,6.8a16.6,16.6,0,0,1-.75,2.37s-.16-.71-.79-.55a7.48,7.48,0,0,1-3.76,0c-.63-.16-.79.55-.79.55a16.6,16.6,0,0,1-.75-2.37s-.55-1.7-.24-6.8l.06-.6A4.54,4.54,0,0,1,507,24.59,4.62,4.62,0,0,1,510.65,26Zm-7.53,2.59v1.28s-.87-.58-1.82-1.32c0-.51.1-1,.16-1.54A8.22,8.22,0,0,0,503.18,29.2Zm0,1.61a2.75,2.75,0,0,0,.08,1.11s-1-.25-2.09-.62q0-.69.09-1.41A7.22,7.22,0,0,0,503.22,30.81Zm.28,2.55a5.78,5.78,0,0,0,.23,1s-1.29,0-2.59-.2c0-.44,0-.9,0-1.36A8.53,8.53,0,0,0,503.5,33.36Zm.61,2.1.14.32a1.14,1.14,0,0,0-.07.56,25,25,0,0,1-3,.54c0-.41,0-.85,0-1.3C502,35.58,503.59,35.52,504.11,35.46ZM504,45.65l1-1a1.43,1.43,0,0,0,.29.1h0c-.11.59,0,1,.23,1.18v0a1.29,1.29,0,0,0,.13.79C504.1,47.43,504,45.65,504,45.65Zm3.1,1.61c-1.41.06-1.51-.8-1.46-1.28a.83.83,0,0,0,.42.14.77.77,0,0,0,.37-.12,1.13,1.13,0,0,1,1.34,0,.77.77,0,0,0,.37.12.83.83,0,0,0,.42-.14C508.56,46.46,508.46,47.32,507.05,47.26Zm1.42-.5a1.36,1.36,0,0,0,.13-.79v0c.27-.19.34-.59.23-1.18h0a1.68,1.68,0,0,0,.29-.1l1,1S510,47.43,508.47,46.76Zm2.71-2.19c-.29,1.08-1,1-1,1l-.91-1a.65.65,0,0,0,.29-.34,1.52,1.52,0,0,0-.08-1C509.91,43.28,511.44,43.64,511.18,44.57ZM509.85,18.9a7.49,7.49,0,0,0-1,2.76,7.65,7.65,0,0,1,1.8,4.35s-.84-1.71-3.6-1.68-3.6,1.67-3.6,1.68a7.65,7.65,0,0,1,1.8-4.35,7.49,7.49,0,0,0-1-2.76c-4.67,6.43-2.85,22.29-2.85,22.29-2.51-20.7,3.16-23.29,3.16-23.29A6.36,6.36,0,0,1,506,21a4.4,4.4,0,0,1,.67-.44l.37-2.17.37,2.17a4.4,4.4,0,0,1,.67.44,6.36,6.36,0,0,1,1.45-3.05s5.67,2.59,3.16,23.29C512.7,41.19,514.52,25.33,509.85,18.9Zm3.36,18q.06-.67.09-1.32h0c.7,0,1,1.05.32,1.27A1.2,1.2,0,0,1,513.21,36.9Zm.6,0a.79.79,0,0,0-.1-1.31l1.53-.13s.67.64.34,1.12S513.81,36.9,513.81,36.9Zm1.72-.12a.89.89,0,0,0-.15-1.32l1-.33s.3.07.49.77S515.53,36.78,515.53,36.78Zm1.44-.59a1.24,1.24,0,0,0-.43-1.1s.17-1.11,1.05-1.11a1,1,0,0,0-.33,1.11s.93-.32.9-1C518.16,34.14,518.89,35.52,517,36.19Zm.94-2.88a1.36,1.36,0,0,0-.42-1.72l1.73-.45a1.79,1.79,0,0,1,.6,1.14C519.82,32.89,517.91,33.31,517.91,33.31Zm2-.92s0-1-.61-1.29c0,0,.31-1.57,1.35-1.67,0,0-.7.64-.42,1.3,0,0,1.35-.29,1.36-1A2.5,2.5,0,0,1,519.89,32.39Z"/><path class="cls-2" d="M502.82,21.89c0,.06,0,.13-.07.2s.11.06.11.06S502.85,22.05,502.82,21.89Z"/></g></g></svg>