<svg xmlns="http://www.w3.org/2000/svg" viewBox="0 0 750.87 253.61"><defs><style>.cls-1{fill:#fff;}.cls-2{fill:#d4f3ff;}.cls-3{fill:#ba6d42;}.cls-4{fill:#c68947;}.cls-5{fill:#cca74c;}.cls-6{fill:#d6c351;}.cls-7{fill:#992e2e;}.cls-8{fill:#af543c;}.cls-9{fill:#a53f35;}.cls-10{fill:#a9e55c;}.cls-11{fill:#81f79d;}.cls-12{fill:#e2e259;}.cls-13{fill:#7bf275;}.cls-14{fill:#95f9d5;}.cls-15{fill:#80ef65;}.cls-16{fill:#bae55c;}.cls-17{fill:#96ea60;}</style></defs><g id="Layer_2" data-name="Layer 2"><g id="Layer_1-2" data-name="Layer 1"><path class="cls-1" d="M64,163.68a9.29,9.29,0,0,1,2,6.07A6.88,6.88,0,0,1,57.5,176a10.31,10.31,0,0,1-7.22-9.78,6.41,6.41,0,0,1,2.79-5.09,6.48,6.48,0,0,1,5.7-1.17A9.36,9.36,0,0,1,64,163.68Zm-2.36,1.74a7.48,7.48,0,0,0-3.51-2.78,3.66,3.66,0,0,0-3.57.49A3.62,3.62,0,0,0,53,166.39a8.5,8.5,0,0,0,5.11,6.93,3.75,3.75,0,0,0,5.08-3.75A7.4,7.4,0,0,0,61.62,165.42Z"/><path class="cls-1" d="M91,132.17l-2-1.45,3-5.49,1.27-.94,9.8,13.3-2.35,1.73L93,128.8Z"/><path class="cls-1" d="M140.7,106l-2,5.09,0,0a30.67,30.67,0,0,1,2.76-1.54l4.24-2.18,1.1,2.14L136.14,115,135,113.5l3.12-8.34c.76-1.82.87-3.27.32-4.33a2.51,2.51,0,0,0-1.63-1.4,3.2,3.2,0,0,0-2.3.37,3,3,0,0,0-1.73,1.79,2.76,2.76,0,0,0,.21,2l-2.58,1.32a5,5,0,0,1-.49-1.62,5.92,5.92,0,0,1,.1-1.9,4.67,4.67,0,0,1,1.06-2,7.14,7.14,0,0,1,2.28-1.76,6.27,6.27,0,0,1,4.47-.7A4.8,4.8,0,0,1,141,99.49a5.36,5.36,0,0,1,.62,3.08A13.34,13.34,0,0,1,140.7,106Z"/><path class="cls-1" d="M179.55,93a3.85,3.85,0,0,0,2.2-2,3,3,0,0,0,.15-2.45A2.74,2.74,0,0,0,180.19,87a3.44,3.44,0,0,0-2.5.11,4.18,4.18,0,0,0-1.89,1.43l-1.77-1,2.95-6.2-6.6,2.7-.91-2.25,10.5-4.3.67,1.64-2.81,5.66a5.25,5.25,0,0,1,4,0,4.73,4.73,0,0,1,2.82,2.75,5.26,5.26,0,0,1-.16,4.5,7.21,7.21,0,0,1-4,3.41,8.45,8.45,0,0,1-6.18.43l.73-2.34A7.62,7.62,0,0,0,179.55,93Z"/><path class="cls-1" d="M229,70.6,221.15,73l-.53-1.76,5.89-12.62,1.83-.55,2.8,9.39,3.3-1,.7,2.35-3.3,1,1.23,4.09-2.81.84Zm-5.29-1,4.59-1.37-1.51-5.06Z"/><path class="cls-1" d="M272.87,61.16a3.94,3.94,0,0,0,2.69-1.29,3.15,3.15,0,0,0,.69-2.49,2.85,2.85,0,0,0-1.17-1.93,3.46,3.46,0,0,0-2.64-.59A5.28,5.28,0,0,0,269,56.51l-2.1-.57-.52-8.33,10.21-1.28.3,2.41-7.63,1,.21,4.18h.07a5.31,5.31,0,0,1,3.22-1.5A5.7,5.7,0,0,1,277,53.44a5.11,5.11,0,0,1,2.1,3.58,5.43,5.43,0,0,1-1.23,4.43,7,7,0,0,1-4.67,2.21,8.43,8.43,0,0,1-6.07-1.19l1.29-2.06A7.32,7.32,0,0,0,272.87,61.16Z"/><path class="cls-1" d="M317.07,38.85a3.76,3.76,0,0,0-2.86,1.73,6.46,6.46,0,0,0-1.06,4.08h0a3.62,3.62,0,0,1,1.58-1.73,5.46,5.46,0,0,1,2.37-.72,6.23,6.23,0,0,1,4.26,1.23,5,5,0,0,1,2.05,3.89A5.13,5.13,0,0,1,322,51.45a6.43,6.43,0,0,1-4.38,1.89,6,6,0,0,1-5.08-1.88,9.09,9.09,0,0,1-2.21-5.77,10.32,10.32,0,0,1,1.44-6.49,6.17,6.17,0,0,1,5.08-2.88,7.4,7.4,0,0,1,3,.36,5.72,5.72,0,0,1,2.31,1.4l-1.72,1.8A4.2,4.2,0,0,0,317.07,38.85Zm-.14,5.79a3.6,3.6,0,0,0-2.45,1,2.84,2.84,0,0,0-.8,2.23,2.94,2.94,0,0,0,1.13,2.18,3.46,3.46,0,0,0,2.52.74,3.53,3.53,0,0,0,2.34-1,2.83,2.83,0,0,0,.84-2.28,2.9,2.9,0,0,0-1.1-2.19A3.43,3.43,0,0,0,316.93,44.64Z"/><path class="cls-1" d="M365,38.37V35.94h12.1v1.89l-7.88,14.63H366l7.81-14.09Z"/><path class="cls-1" d="M417.07,52.36a7.73,7.73,0,0,1-4.64-1.93A4.52,4.52,0,0,1,411,46.5a3.69,3.69,0,0,1,1.11-2.22,4.71,4.71,0,0,1,2.37-1.35,3.88,3.88,0,0,1-1.58-1.53,3.21,3.21,0,0,1-.47-2,4,4,0,0,1,2-3.15,7.87,7.87,0,0,1,8.61.9,4.05,4.05,0,0,1,1.33,3.51,3.29,3.29,0,0,1-.86,1.84,3.67,3.67,0,0,1-1.86,1.17,4.73,4.73,0,0,1,2,1.8,3.7,3.7,0,0,1,.61,2.42A4.5,4.5,0,0,1,422,51.43,7.65,7.65,0,0,1,417.07,52.36Zm.92-7.83h-.1a4.35,4.35,0,0,0-2.84.49,2.38,2.38,0,0,0-1.15,1.8,2.31,2.31,0,0,0,.84,2,4.29,4.29,0,0,0,2.59,1,4.34,4.34,0,0,0,2.78-.49,2.32,2.32,0,0,0,1.23-1.79,2.37,2.37,0,0,0-.75-2A4.24,4.24,0,0,0,418,44.53Zm.07-2.08h.1a3.16,3.16,0,0,0,2.29-.49,2.25,2.25,0,0,0,1-1.61,1.85,1.85,0,0,0-.67-1.62,3.61,3.61,0,0,0-2.15-.86,3.68,3.68,0,0,0-2.27.39,1.91,1.91,0,0,0-1,1.45,2.33,2.33,0,0,0,.6,1.78A3.17,3.17,0,0,0,418.06,42.45Z"/><path class="cls-1" d="M462.78,59.86a3.78,3.78,0,0,0,3.22-1,6.18,6.18,0,0,0,2-3.69h0a3.52,3.52,0,0,1-2,1.28,5.46,5.46,0,0,1-2.48.12,6.26,6.26,0,0,1-3.82-2.25,5,5,0,0,1-1-4.28,5.18,5.18,0,0,1,2.45-3.63,6.54,6.54,0,0,1,4.71-.75,6,6,0,0,1,4.46,3.09,9.1,9.1,0,0,1,.71,6.14,10.35,10.35,0,0,1-3,5.94,6.2,6.2,0,0,1-5.63,1.52,7.47,7.47,0,0,1-2.81-1.09,5.7,5.7,0,0,1-1.89-1.93l2.11-1.31A4.17,4.17,0,0,0,462.78,59.86Zm1.57-5.56a3.61,3.61,0,0,0,2.63-.41,2.84,2.84,0,0,0,1.33-2,3,3,0,0,0-.56-2.4,3.46,3.46,0,0,0-2.26-1.33,3.55,3.55,0,0,0-2.53.42,2.84,2.84,0,0,0-1.37,2,2.88,2.88,0,0,0,.52,2.39A3.51,3.51,0,0,0,464.35,54.3Z"/><path class="cls-1" d="M500.2,58l-.08-2.44,6.2-1,1.52.41-4.38,15.93-2.82-.77,3.47-12.61Z"/><path class="cls-1" d="M522.38,67.52a9.23,9.23,0,0,1-3.55,5.32,6.88,6.88,0,0,1-10.15-2.78,10.33,10.33,0,0,1,3.21-11.72,6.9,6.9,0,0,1,10.17,2.8A9.29,9.29,0,0,1,522.38,67.52Zm-2.83-.77a7.43,7.43,0,0,0,0-4.48,3.75,3.75,0,0,0-6.09-1.67,8.51,8.51,0,0,0-2.28,8.3,3.76,3.76,0,0,0,6.09,1.68A7.43,7.43,0,0,0,519.55,66.75Z"/><path class="cls-1" d="M553.81,76.83l.26-2.44,6.28-.11,1.45.63-6.62,15.14-2.68-1.17,5.24-12Z"/><path class="cls-1" d="M562.3,80.54l.27-2.43,6.28-.11,1.45.63-6.62,15.13L561,92.59l5.24-12Z"/><path class="cls-1" d="M598.09,96l.64-2.36,6.22.86,1.33.85-8.87,13.93L595,107.73l7-11Z"/><path class="cls-1" d="M610.22,110.4l-5.42.83,0,0a28.87,28.87,0,0,1,2.73,1.6l4,2.56-1.3,2L600.12,111l.71-1.73,8.77-1.52c2-.26,3.26-.9,3.9-1.91a2.51,2.51,0,0,0,.39-2.12,3.21,3.21,0,0,0-1.48-1.79,3,3,0,0,0-2.42-.59,2.72,2.72,0,0,0-1.59,1.18L606,101a4.65,4.65,0,0,1,1.15-1.24,5.87,5.87,0,0,1,1.69-.88,4.58,4.58,0,0,1,2.3-.12,7.3,7.3,0,0,1,2.67,1.08,6.3,6.3,0,0,1,2.86,3.5,4.78,4.78,0,0,1-.69,4.07,5.38,5.38,0,0,1-2.34,2.09A13,13,0,0,1,610.22,110.4Z"/><path class="cls-1" d="M634.2,120l.95-2.26,6.05,1.67,1.21,1L631.78,133l-2.24-1.89,8.42-10Z"/><path class="cls-1" d="M639.57,136.62a3.91,3.91,0,0,0,2.77,1,3,3,0,0,0,2.24-1,2.73,2.73,0,0,0,.64-2.27A3.4,3.4,0,0,0,644,132.2a4.18,4.18,0,0,0-2.15-1l.08-2,6.86-.28-5.46-4.58,1.57-1.87,8.68,7.31-1.14,1.36-6.32.14a5.25,5.25,0,0,1,1.89,3.5,4.72,4.72,0,0,1-1.13,3.77,5.28,5.28,0,0,1-4.06,1.95,7.17,7.17,0,0,1-4.86-1.94,8.39,8.39,0,0,1-3.25-5.26l2.41-.44A7.71,7.71,0,0,0,639.57,136.62Z"/><path class="cls-1" d="M669.26,149.9l1-2.26,6,1.67,1.21,1L666.83,163l-2.23-1.89,8.41-10Z"/><path class="cls-1" d="M677.58,166.43l-6.3-5.3,1.19-1.41,13.77-2,1.47,1.23-6.31,7.5,2.64,2.21-1.58,1.88-2.64-2.22-2.75,3.27-2.24-1.88Zm-2.08-5,3.66,3.08,3.41-4Z"/><path class="cls-2" d="M358.85,14.16l-7-9.55v9.55h-2.59V0h2l7,9.49V0h2.59V14.16Z"/><path class="cls-2" d="M372.22,11l1.41,1.4a5.9,5.9,0,0,1-4.63,2,6,6,0,0,1-4.28-1.53,5,5,0,0,1-1.6-3.77,5.13,5.13,0,0,1,1.59-3.83,5.55,5.55,0,0,1,4-1.55,5.38,5.38,0,0,1,3.81,1.45,5.44,5.44,0,0,1,1.57,4.23h-8.5a2.62,2.62,0,0,0,1,2.08,3.87,3.87,0,0,0,2.56.82A4.48,4.48,0,0,0,372.22,11Zm-3.5-5.34a3.54,3.54,0,0,0-1.79.47,2.7,2.7,0,0,0-1.2,1.56h5.82a2.32,2.32,0,0,0-1.07-1.55A3.4,3.4,0,0,0,368.72,5.68Z"/><path class="cls-2" d="M385.51,3.92V14.16H383V12.44a3.81,3.81,0,0,1-6.14.69,5.73,5.73,0,0,1-1-3.54V3.92h2.49V9.57c0,1.75.66,2.63,2,2.63a2.38,2.38,0,0,0,1.82-.93A4.39,4.39,0,0,0,383,8.35V3.92Z"/><path class="cls-2" d="M391.41,1.19V3.92h3.06V5.83h-3.06v5.36q0,1.11,1,1.11a1,1,0,0,0,.74-.3,1,1,0,0,0,.27-.75,2,2,0,0,0-.14-.85h2.05a2.77,2.77,0,0,1,.22,1.15,2.71,2.71,0,0,1-.83,2,3.31,3.31,0,0,1-2.41.81,3.64,3.64,0,0,1-2.42-.8,3.38,3.38,0,0,1-1-2.74v-5h-1.59V3.92h1.72l.44-2.73Z"/><path class="cls-2" d="M399.62,3.92V6.19a2.89,2.89,0,0,1,1.05-1.85,2.74,2.74,0,0,1,1.75-.64,3.62,3.62,0,0,1,.84.14V6.29a3.42,3.42,0,0,0-1.17-.2,2.28,2.28,0,0,0-.78.13,2.65,2.65,0,0,0-.77.46,2.35,2.35,0,0,0-.63,1.05,5.26,5.26,0,0,0-.25,1.7v4.73h-2.48V3.92Z"/><path class="cls-2" d="M405.68,12.81A5,5,0,0,1,404,9a5,5,0,0,1,1.65-3.77,5.45,5.45,0,0,1,3.89-1.57,5.5,5.5,0,0,1,3.91,1.58,5.11,5.11,0,0,1,0,7.53,5.64,5.64,0,0,1-7.81,0Zm1.74-6A3.17,3.17,0,0,0,406.54,9a3.21,3.21,0,0,0,.88,2.28,3,3,0,0,0,4.33,0A3.21,3.21,0,0,0,412.63,9a3.17,3.17,0,0,0-.88-2.27,3,3,0,0,0-4.33,0Z"/><path class="cls-2" d="M2.67,238.14H0L5.46,224H8.15l5.5,14.16H11l-1.07-2.77H3.7Zm6.51-4.87-2.36-6.66-2.39,6.66Zm-2.1-13.41H9.71l-2.37,3H5.4Z"/><path class="cls-2" d="M14.26,233.08a5.19,5.19,0,0,1,1.56-3.87,5.72,5.72,0,0,1,4.2-1.53A6.63,6.63,0,0,1,24,229.06l-1.16,1.78a4.05,4.05,0,0,0-2.66-.93,3.44,3.44,0,0,0-2.44.87,3.14,3.14,0,0,0,0,4.49,3.45,3.45,0,0,0,2.43.87,4,4,0,0,0,2.66-.93L24,237A6.47,6.47,0,0,1,20,238.36a5.84,5.84,0,0,1-4.18-1.49A5,5,0,0,1,14.26,233.08Z"/><path class="cls-2" d="M26,226a1.48,1.48,0,0,1-.46-1.11,1.54,1.54,0,0,1,.46-1.12,1.58,1.58,0,0,1,1.16-.45,1.68,1.68,0,0,1,1.19.45,1.51,1.51,0,0,1,.47,1.12,1.46,1.46,0,0,1-.47,1.11,1.68,1.68,0,0,1-1.19.45A1.58,1.58,0,0,1,26,226Zm2.4,12.16H25.89V227.91h2.49Z"/><path class="cls-2" d="M39.1,223.52h2.48v14.62H39.1V236.6a3.91,3.91,0,0,1-3.52,1.76A4.6,4.6,0,0,1,32,236.82,5.53,5.53,0,0,1,30.58,233,5.47,5.47,0,0,1,32,229.21a4.64,4.64,0,0,1,3.65-1.53,4.11,4.11,0,0,1,3.5,1.74Zm-6,9.48a3.4,3.4,0,0,0,.82,2.35,2.77,2.77,0,0,0,2.19.93,3,3,0,0,0,2.18-.85,3.14,3.14,0,0,0,.86-2.33,3.4,3.4,0,0,0-.86-2.41,2.94,2.94,0,0,0-2.26-.92,2.65,2.65,0,0,0-2.14.93A3.42,3.42,0,0,0,33.09,233Z"/><path class="cls-2" d="M45.36,236.8a5.14,5.14,0,0,1,0-7.55,5.6,5.6,0,0,1,7.79,0,5.12,5.12,0,0,1,0,7.54,5.65,5.65,0,0,1-7.8,0Zm1.74-6.05a3.38,3.38,0,0,0,0,4.55,3,3,0,0,0,4.32,0,3.38,3.38,0,0,0,0-4.55,3,3,0,0,0-4.32,0Z"/><path class="cls-3" d="M165.11,112.4l38.15,74.8a362.63,362.63,0,0,1,35.55-16.52l-29-78.37A437.21,437.21,0,0,0,165.11,112.4Z"/><path class="cls-4" d="M209.78,92.31l29,78.37a357.07,357.07,0,0,1,35.75-12.16L254.2,77.9A438.38,438.38,0,0,0,209.78,92.31Z"/><path class="cls-5" d="M254.2,77.9l20.36,80.62A355.85,355.85,0,0,1,313,149.93L299.59,68.28A448,448,0,0,0,254.2,77.9Z"/><path class="cls-6" d="M299.59,68.28,313,149.93a362,362,0,0,1,37.71-4.26l-3.13-82.43A466.29,466.29,0,0,0,299.59,68.28Z"/><path class="cls-7" d="M55.07,195.46l60.37,58.15s8.68-10.22,25.46-24.38L87.77,163.85C66.09,182.1,55.07,195.46,55.07,195.46Z"/><path class="cls-8" d="M125.48,135.71l45.44,70.9a365.35,365.35,0,0,1,32.34-19.41l-38.15-74.8A434.5,434.5,0,0,0,125.48,135.71Z"/><path class="cls-9" d="M87.77,163.85l53.13,65.38a351.86,351.86,0,0,1,30-22.62l-45.44-70.9A413,413,0,0,0,87.77,163.85Z"/><path class="cls-10" d="M438.54,67l-12.65,81.78a353.49,353.49,0,0,1,39.66,8.09L486,76.17A447.68,447.68,0,0,0,438.54,67Z"/><path class="cls-11" d="M613.76,131.44l-46,70.81a342.74,342.74,0,0,1,31.79,23.31l53.13-65.38A391.13,391.13,0,0,0,613.76,131.44Z"/><path class="cls-12" d="M373.2,62.56q-13.06,0-25.61.68l3.13,82.43c7.34-.44,14.83-.68,22.48-.68q7.4,0,14.58.29l4.76-82.34Q383,62.57,373.2,62.56Z"/><path class="cls-13" d="M573.49,108.45l-38.36,75a355.74,355.74,0,0,1,32.67,18.83l46-70.81A414.45,414.45,0,0,0,573.49,108.45Z"/><path class="cls-14" d="M652.72,160.18l-53.13,65.38c19.4,16,29.39,28.05,29.39,28.05l57.31-60.68S675.09,179,652.72,160.18Z"/><path class="cls-15" d="M530.39,89.83,500,167.9a351.82,351.82,0,0,1,35.1,15.52l38.36-75A423,423,0,0,0,530.39,89.83Z"/><path class="cls-16" d="M392.54,62.94l-4.76,82.34a364.8,364.8,0,0,1,38.11,3.49L438.54,67C423.86,65,408.52,63.57,392.54,62.94Z"/><path class="cls-17" d="M486,76.17l-20.48,80.69a351.3,351.3,0,0,1,34.48,11l30.36-78.07A434.5,434.5,0,0,0,486,76.17Z"/><path class="cls-2" d="M675.55,238.29h-2.67l5.46-14.16H681l5.5,14.16h-2.65l-1.07-2.77h-6.23Zm6.51-4.88-2.37-6.65-2.38,6.65Z"/><path class="cls-2" d="M690.64,238.29h-2.49V223.66h2.49Z"/><path class="cls-2" d="M692.8,233.23a5.18,5.18,0,0,1,1.56-3.87,5.75,5.75,0,0,1,4.21-1.53,6.68,6.68,0,0,1,3.94,1.37L701.36,231a4.1,4.1,0,0,0-2.67-.93,3.46,3.46,0,0,0-2.44.87,2.91,2.91,0,0,0-.94,2.25,2.87,2.87,0,0,0,1,2.24,3.45,3.45,0,0,0,2.43.87,4.06,4.06,0,0,0,2.67-.93l1.15,1.76a6.48,6.48,0,0,1-3.94,1.4,5.83,5.83,0,0,1-4.19-1.5A5,5,0,0,1,692.8,233.23Z"/><path class="cls-2" d="M712.08,228.05h2.48v10.24h-2.48v-1.54a3.89,3.89,0,0,1-3.5,1.76A4.65,4.65,0,0,1,705,237a5.51,5.51,0,0,1-1.4-3.83,5.39,5.39,0,0,1,1.38-3.77,4.66,4.66,0,0,1,3.66-1.53,4,4,0,0,1,3.48,1.74Zm-6,5.1a3.39,3.39,0,0,0,.82,2.34,2.78,2.78,0,0,0,2.19.94,3,3,0,0,0,2.19-.85,3.12,3.12,0,0,0,.87-2.33,3.43,3.43,0,0,0-.86-2.42,3,3,0,0,0-2.26-.92,2.69,2.69,0,0,0-2.15.93A3.38,3.38,0,0,0,706.07,233.15Z"/><path class="cls-2" d="M719.92,238.29h-2.48V223.66h2.48Z"/><path class="cls-2" d="M722.93,226.13a1.58,1.58,0,0,1,0-2.23,1.54,1.54,0,0,1,1.16-.46,1.61,1.61,0,0,1,1.18.46,1.54,1.54,0,0,1,0,2.23,1.63,1.63,0,0,1-1.18.44A1.57,1.57,0,0,1,722.93,226.13Zm2.39,12.16h-2.49V228.05h2.49Z"/><path class="cls-2" d="M728.2,238.29V228.05h2.48v1.72a3.82,3.82,0,0,1,6.15-.69,5.8,5.8,0,0,1,.95,3.54v5.67h-2.49v-5.65a3.32,3.32,0,0,0-.52-2,1.72,1.72,0,0,0-1.46-.7,2.4,2.4,0,0,0-1.89.84,3.53,3.53,0,0,0-.74,2.4v5.12Z"/><path class="cls-2" d="M741.41,236.94a5.13,5.13,0,0,1,0-7.54,5.62,5.62,0,0,1,7.8,0,5.11,5.11,0,0,1,0,7.53,5.64,5.64,0,0,1-7.81,0Zm1.74-6.05a3.26,3.26,0,0,0-.88,2.28,3.21,3.21,0,0,0,.88,2.27,3,3,0,0,0,4.33,0,3.17,3.17,0,0,0,.88-2.27,3.21,3.21,0,0,0-.88-2.28,3,3,0,0,0-4.33,0Z"/><path class="cls-1" d="M339.29,242.83h-7.46v-44.6h7.46v4.61q3.39-5.28,10.5-5.28a14,14,0,0,1,10.89,4.61,16.6,16.6,0,0,1,4.16,11.53A16.3,16.3,0,0,1,360.71,225a14.07,14.07,0,0,1-11,4.58,12,12,0,0,1-10.44-5.22Zm18-29.19a10.26,10.26,0,0,0-2.46-7,8.32,8.32,0,0,0-6.58-2.79,9,9,0,0,0-6.55,2.55,9.31,9.31,0,0,0-2.61,7,10.15,10.15,0,0,0,2.61,7.22,8.8,8.8,0,0,0,6.73,2.79,8.07,8.07,0,0,0,6.46-2.79A10.24,10.24,0,0,0,357.31,213.64Z"/><path class="cls-1" d="M405.49,228.93h-7.77V211.76h-18v17.17H372V186.46h7.76v19.11h18V186.46h7.77Z"/></g></g></svg>